<svg xmlns="http://www.w3.org/2000/svg" viewBox="0 0 1000 1000" width="1000" height="1000" role="img" aria-label="Outline agenda-giornaliera">
  <g fill="none" stroke="#111" stroke-width="1.43" stroke-linecap="round" stroke-linejoin="round">
    <path pathLength="1" d="M 89 175 L 919 177 L 924 827 L 889 835 L 899 830 L 900 188 L 914 183 L 111 187 L 108 247 L 104 188 L 103 826 L 85 826 L 75 813 L 79 185 L 88 175"/>
    <path pathLength="1" d="M 90 174 L 78 198 L 82 504 L 75 813 L 84 826 L 392 824 L 501 813 L 882 836 L 924 828 L 927 191 L 920 177 L 493 182 L 91 174"/>
    <path pathLength="1" d="M 92 237 L 87 821 L 95 497 L 98 747 L 101 258 L 95 497 L 92 238"/>
    <path pathLength="1" d="M 853 186 L 895 187 L 890 832 L 505 806 L 501 659 L 505 646 L 506 218 L 502 212 L 506 192 L 852 186"/>
    <path pathLength="1" d="M 110 188 L 503 193 L 499 807 L 358 820 L 108 823 L 109 189"/>
    <path pathLength="1" d="M 88 184 L 85 787 L 88 185 L 97 185 L 97 188 L 92 187 L 98 189 L 98 198 L 101 197 L 101 238 L 103 186 L 89 184"/>
    <path pathLength="1" d="M 894 324 L 897 324 L 896 737 L 896 679 L 900 679 L 897 833 L 894 832 L 896 763 L 893 763 L 894 325"/>
    <path pathLength="1" d="M 500 807 L 784 829 L 622 823 L 501 813 L 415 823 L 242 825 L 426 816 L 499 807"/>
    <path pathLength="1" d="M 895 185 L 901 185 L 902 364 L 899 459 L 900 582 L 898 590 L 896 589 L 898 237 L 897 187 L 895 186"/>
    <path pathLength="1" d="M 790 273 L 769 274 L 767 278 L 530 279 L 527 277 L 527 274 L 524 274 L 525 281 L 792 280 L 796 277 L 815 277 L 817 279 L 821 273 L 823 277 L 838 276 L 852 277 L 853 279 L 820 280 L 866 280 L 866 277 L 865 280 L 859 279 L 863 277 L 864 274 L 791 273"/>
    <path pathLength="1" d="M 476 773 L 409 779 L 154 785 L 151 781 L 146 781 L 143 778 L 138 779 L 139 784 L 151 783 L 153 785 L 409 779 L 482 773 L 477 773"/>
    <path pathLength="1" d="M 477 652 L 357 658 L 137 662 L 137 664 L 367 660 L 453 657 L 483 654 L 483 652 L 478 652"/>
    <path pathLength="1" d="M 472 593 L 355 598 L 139 601 L 137 604 L 368 600 L 483 595 L 482 593 L 473 593"/>
    <path pathLength="1" d="M 478 711 L 394 717 L 138 722 L 138 724 L 381 720 L 459 716 L 482 713 L 482 711 L 479 711"/>
    <path pathLength="1" d="M 470 514 L 397 517 L 137 521 L 137 523 L 369 520 L 483 516 L 483 514 L 471 514"/>
    <path pathLength="1" d="M 467 633 L 352 638 L 137 642 L 137 644 L 332 641 L 482 635 L 482 633 L 468 633"/>
    <path pathLength="1" d="M 469 613 L 354 618 L 137 622 L 137 624 L 405 619 L 482 615 L 482 613 L 470 613"/>
    <path pathLength="1" d="M 479 553 L 396 557 L 137 561 L 137 563 L 410 559 L 482 556 L 480 553"/>
    <path pathLength="1" d="M 472 692 L 391 697 L 138 702 L 138 704 L 374 700 L 482 694 L 482 692 L 473 692"/>
    <path pathLength="1" d="M 473 573 L 397 577 L 138 581 L 137 583 L 444 578 L 482 575 L 482 573 L 474 573"/>
    <path pathLength="1" d="M 458 475 L 415 477 L 143 480 L 137 481 L 137 483 L 429 479 L 482 477 L 483 475 L 459 475"/>
    <path pathLength="1" d="M 479 415 L 353 418 L 136 420 L 136 422 L 482 418 L 480 415"/>
    <path pathLength="1" d="M 464 534 L 295 539 L 137 541 L 137 543 L 370 540 L 482 536 L 482 534 L 465 534"/>
    <path pathLength="1" d="M 476 494 L 350 498 L 143 500 L 137 501 L 137 503 L 482 497 L 481 494 L 477 494"/>
    <path pathLength="1" d="M 467 455 L 137 460 L 137 462 L 389 460 L 482 457 L 482 455 L 468 455"/>
    <path pathLength="1" d="M 336 278 L 136 279 L 136 281 L 482 281 L 483 279 L 337 278"/>
    <path pathLength="1" d="M 447 376 L 137 380 L 137 382 L 482 379 L 482 376 L 448 376"/>
    <path pathLength="1" d="M 394 357 L 139 359 L 137 362 L 483 359 L 483 357 L 395 357"/>
    <path pathLength="1" d="M 328 298 L 136 299 L 136 301 L 482 301 L 482 298 L 329 298"/>
    <path pathLength="1" d="M 523 691 L 523 693 L 596 698 L 863 709 L 863 707 L 645 698 L 524 691"/>
    <path pathLength="1" d="M 278 318 L 137 319 L 137 321 L 483 320 L 483 318 L 279 318"/>
    <path pathLength="1" d="M 435 337 L 139 339 L 137 342 L 482 340 L 482 337 L 436 337"/>
    <path pathLength="1" d="M 524 533 L 525 536 L 864 546 L 864 544 L 678 539 L 525 533"/>
    <path pathLength="1" d="M 524 514 L 524 516 L 597 519 L 864 525 L 864 523 L 525 514"/>
    <path pathLength="1" d="M 107 280 L 110 280 L 110 618 L 108 620 L 105 619 L 105 352 L 107 351 L 107 281"/>
    <path pathLength="1" d="M 525 298 L 524 300 L 526 301 L 865 301 L 865 299 L 526 298"/>
    <path pathLength="1" d="M 525 299 L 526 298 L 769 298 L 770 299 L 769 301 L 526 301 L 525 300"/>
    <path pathLength="1" d="M 570 279 L 571 278 L 718 278 L 719 279 L 718 281 L 571 281 L 570 280"/>
    <path pathLength="1" d="M 915 664 L 915 670 L 914 671 L 914 703 L 912 704 L 912 726 L 911 727 L 911 770 L 910 772 L 911 770 L 913 771 L 913 791 L 912 792 L 912 799 L 912 792 L 913 791 L 913 746 L 914 745 L 914 671 L 915 670 L 915 665"/>
    <path pathLength="1" d="M 335 279 L 336 278 L 464 278 L 465 279 L 464 281 L 336 281 L 335 280"/>
    <path pathLength="1" d="M 106 724 L 107 723 L 109 724 L 109 817 L 108 818 L 109 820 L 108 823 L 109 825 L 112 826 L 111 828 L 104 827 L 103 826 L 103 823 L 105 822 L 105 818 L 106 817 L 106 725"/>
    <path pathLength="1" d="M 710 234 L 708 236 L 691 236 L 691 240 L 692 241 L 702 241 L 703 240 L 705 241 L 715 241 L 716 243 L 718 243 L 720 239 L 725 239 L 727 241 L 734 241 L 735 240 L 737 241 L 741 241 L 743 240 L 744 238 L 746 239 L 746 238 L 748 237 L 749 238 L 749 241 L 753 241 L 754 240 L 756 241 L 760 241 L 763 240 L 764 241 L 770 241 L 772 243 L 776 243 L 777 242 L 776 241 L 776 236 L 775 235 L 768 235 L 767 234 L 761 236 L 759 235 L 757 236 L 751 235 L 748 237 L 743 237 L 741 234 L 739 234 L 737 236 L 729 236 L 727 234 L 725 234 L 725 236 L 721 238 L 718 236 L 711 235"/>
    <path pathLength="1" d="M 327 299 L 328 298 L 421 298 L 422 299 L 421 301 L 328 301 L 327 300"/>
    <path pathLength="1" d="M 896 591 L 897 590 L 899 591 L 899 596 L 901 600 L 900 602 L 900 607 L 899 608 L 899 611 L 900 612 L 900 625 L 899 626 L 901 627 L 901 628 L 899 629 L 900 636 L 901 637 L 901 641 L 900 642 L 901 672 L 899 677 L 896 676 L 896 592"/>
    <path pathLength="1" d="M 807 233 L 807 236 L 806 237 L 803 236 L 802 238 L 800 237 L 800 235 L 795 235 L 794 236 L 789 235 L 786 236 L 784 234 L 782 234 L 782 236 L 779 237 L 779 239 L 785 241 L 788 241 L 789 240 L 800 241 L 802 239 L 806 239 L 810 241 L 813 241 L 814 240 L 826 241 L 829 240 L 829 237 L 828 236 L 829 239 L 825 241 L 822 241 L 821 240 L 820 241 L 818 240 L 810 241 L 807 239 L 807 236 L 808 235 L 812 238 L 814 235 L 817 236 L 821 235 L 822 236 L 825 234 L 827 234 L 811 236 L 809 233 L 808 233"/>
    <path pathLength="1" d="M 297 234 L 295 236 L 291 236 L 290 237 L 283 235 L 280 238 L 278 238 L 277 240 L 280 240 L 281 242 L 289 242 L 290 241 L 297 241 L 298 242 L 299 241 L 302 241 L 304 244 L 307 244 L 313 240 L 317 240 L 319 242 L 326 242 L 327 241 L 334 241 L 335 242 L 340 242 L 341 241 L 352 242 L 352 237 L 346 236 L 345 235 L 342 235 L 339 237 L 333 237 L 332 236 L 326 237 L 320 235 L 318 237 L 318 239 L 316 240 L 315 238 L 313 238 L 311 236 L 308 237 L 306 236 L 305 237 L 302 237 L 298 234"/>
    <path pathLength="1" d="M 208 234 L 207 236 L 203 237 L 202 240 L 200 240 L 199 237 L 195 237 L 191 235 L 188 236 L 182 236 L 181 237 L 175 236 L 174 239 L 175 242 L 186 241 L 187 242 L 194 242 L 195 244 L 197 244 L 199 240 L 204 240 L 206 242 L 209 242 L 210 241 L 218 241 L 219 242 L 222 242 L 223 241 L 228 241 L 229 242 L 236 241 L 239 242 L 240 239 L 239 236 L 236 237 L 234 235 L 231 235 L 230 236 L 213 236 L 212 237 L 209 235"/>
    <path pathLength="1" d="M 895 237 L 896 236 L 898 237 L 898 310 L 897 311 L 895 310 L 895 238"/>
    <path pathLength="1" d="M 788 221 L 787 222 L 770 222 L 768 224 L 765 224 L 764 226 L 762 225 L 762 222 L 746 222 L 745 224 L 744 224 L 743 222 L 737 222 L 736 223 L 736 228 L 762 228 L 763 226 L 768 226 L 769 228 L 783 228 L 785 227 L 787 230 L 789 230 L 791 228 L 794 228 L 795 227 L 795 222 L 789 222"/>
    <path pathLength="1" d="M 277 319 L 278 318 L 341 318 L 342 319 L 341 321 L 278 321 L 277 320"/>
    <path pathLength="1" d="M 138 340 L 139 339 L 199 339 L 200 340 L 199 342 L 139 342 L 138 341"/>
    <path pathLength="1" d="M 501 542 L 502 541 L 504 542 L 504 548 L 505 549 L 505 597 L 504 598 L 502 597 L 502 549 L 501 548 L 501 543"/>
    <path pathLength="1" d="M 892 779 L 893 778 L 895 779 L 895 822 L 894 823 L 895 827 L 893 833 L 890 832 L 890 828 L 891 827 L 891 806 L 892 805 L 892 780"/>
    <path pathLength="1" d="M 160 420 L 161 419 L 213 419 L 214 420 L 213 422 L 161 422 L 160 421"/>
    <path pathLength="1" d="M 138 360 L 139 359 L 190 359 L 191 360 L 190 362 L 139 362 L 138 361"/>
    <path pathLength="1" d="M 104 252 L 105 251 L 107 252 L 107 302 L 106 303 L 104 302 L 104 253"/>
    <path pathLength="1" d="M 502 438 L 503 437 L 505 438 L 505 487 L 504 488 L 502 487 L 502 439"/>
    <path pathLength="1" d="M 253 379 L 254 378 L 302 378 L 303 379 L 302 381 L 254 381 L 253 380"/>
    <path pathLength="1" d="M 502 383 L 503 382 L 505 383 L 505 430 L 504 431 L 502 430 L 502 384"/>
    <path pathLength="1" d="M 434 338 L 435 337 L 481 337 L 482 338 L 481 340 L 435 340 L 434 339"/>
    <path pathLength="1" d="M 502 495 L 503 494 L 505 495 L 505 540 L 504 541 L 502 540 L 502 496"/>
    <path pathLength="1" d="M 343 458 L 344 457 L 389 457 L 390 458 L 389 460 L 344 460 L 343 459"/>
    <path pathLength="1" d="M 98 310 L 99 309 L 101 310 L 101 355 L 100 356 L 98 355 L 98 311"/>
    <path pathLength="1" d="M 103 773 L 104 772 L 106 773 L 106 817 L 105 818 L 103 817 L 103 774"/>
    <path pathLength="1" d="M 145 380 L 146 379 L 187 379 L 188 380 L 187 382 L 146 382 L 145 381"/>
    <path pathLength="1" d="M 280 339 L 281 338 L 321 338 L 322 339 L 321 341 L 281 341 L 280 340"/>
    <path pathLength="1" d="M 104 677 L 105 676 L 107 677 L 107 694 L 109 695 L 109 696 L 107 697 L 107 705 L 108 705 L 109 707 L 107 708 L 107 714 L 106 715 L 104 714 L 104 678"/>
    <path pathLength="1" d="M 247 236 L 246 237 L 243 237 L 244 239 L 242 240 L 244 240 L 244 239 L 246 238 L 247 239 L 247 242 L 263 241 L 264 242 L 269 242 L 271 244 L 274 244 L 275 243 L 274 240 L 275 237 L 273 236 L 272 237 L 269 236 L 256 236 L 255 237 L 253 236 L 248 236"/>
    <path pathLength="1" d="M 854 218 L 851 219 L 851 229 L 852 230 L 856 230 L 858 232 L 858 236 L 855 238 L 850 238 L 850 240 L 852 241 L 858 240 L 861 237 L 861 230 L 853 225 L 853 223 L 855 221 L 860 221 L 860 219 L 855 218"/>
    <path pathLength="1" d="M 150 541 L 151 540 L 188 540 L 189 541 L 188 543 L 151 543 L 150 542"/>
    <path pathLength="1" d="M 251 237 L 252 236 L 254 237 L 256 236 L 259 237 L 260 236 L 264 236 L 265 239 L 268 239 L 269 237 L 273 237 L 275 242 L 272 244 L 270 242 L 264 242 L 262 241 L 261 239 L 260 239 L 259 241 L 257 241 L 256 239 L 256 240 L 254 241 L 253 239 L 252 242 L 248 242 L 247 241 L 247 238 L 250 237"/>
    <path pathLength="1" d="M 188 825 L 189 824 L 225 824 L 226 825 L 225 827 L 189 827 L 188 826"/>
    <path pathLength="1" d="M 242 580 L 243 579 L 279 579 L 280 580 L 279 582 L 243 582 L 242 581"/>
    <path pathLength="1" d="M 151 521 L 152 520 L 188 520 L 189 521 L 188 523 L 152 523 L 151 522"/>
    <path pathLength="1" d="M 353 418 L 354 417 L 390 417 L 391 418 L 390 420 L 354 420 L 353 419"/>
    <path pathLength="1" d="M 268 359 L 269 358 L 305 358 L 306 359 L 305 361 L 269 361 L 268 360"/>
    <path pathLength="1" d="M 823 220 L 820 222 L 802 222 L 801 224 L 798 224 L 798 226 L 801 224 L 802 225 L 802 228 L 804 227 L 807 227 L 808 228 L 816 228 L 817 227 L 824 228 L 825 227 L 828 227 L 829 226 L 828 222 L 826 220 L 824 220"/>
    <path pathLength="1" d="M 501 730 L 502 729 L 504 730 L 504 765 L 503 766 L 501 765 L 501 731"/>
    <path pathLength="1" d="M 195 221 L 192 223 L 175 222 L 174 223 L 174 229 L 175 228 L 179 228 L 180 229 L 187 229 L 188 228 L 196 229 L 197 228 L 205 227 L 205 224 L 201 224 L 198 221 L 196 221"/>
    <path pathLength="1" d="M 142 501 L 143 500 L 177 500 L 178 501 L 177 503 L 143 503 L 142 502"/>
    <path pathLength="1" d="M 362 378 L 363 377 L 397 377 L 398 378 L 397 380 L 363 380 L 362 379"/>
    <path pathLength="1" d="M 446 377 L 447 376 L 481 376 L 482 377 L 481 379 L 447 379 L 446 378"/>
    <path pathLength="1" d="M 393 358 L 394 357 L 428 357 L 429 358 L 428 360 L 394 360 L 393 359"/>
    <path pathLength="1" d="M 279 499 L 280 498 L 313 498 L 314 499 L 313 501 L 280 501 L 279 500"/>
    <path pathLength="1" d="M 342 478 L 343 477 L 376 477 L 377 478 L 376 480 L 343 480 L 342 479"/>
    <path pathLength="1" d="M 275 459 L 276 458 L 309 458 L 310 459 L 309 461 L 276 461 L 275 460"/>
    <path pathLength="1" d="M 265 419 L 266 418 L 299 418 L 300 419 L 299 421 L 266 421 L 265 420"/>
    <path pathLength="1" d="M 295 619 L 296 618 L 328 618 L 329 619 L 328 621 L 296 621 L 295 620"/>
    <path pathLength="1" d="M 264 479 L 265 478 L 297 478 L 298 479 L 297 481 L 265 481 L 264 480"/>
    <path pathLength="1" d="M 210 222 L 208 223 L 208 229 L 210 228 L 212 229 L 210 227 L 211 225 L 213 225 L 214 228 L 216 229 L 222 229 L 224 226 L 226 227 L 226 229 L 229 228 L 228 222 L 226 223 L 221 223 L 220 222 L 214 223 L 211 222"/>
    <path pathLength="1" d="M 501 772 L 502 771 L 504 772 L 504 803 L 503 804 L 501 803 L 501 773"/>
    <path pathLength="1" d="M 231 560 L 232 559 L 263 559 L 264 560 L 263 562 L 232 562 L 231 561"/>
    <path pathLength="1" d="M 206 237 L 207 236 L 210 237 L 217 236 L 220 237 L 221 239 L 221 238 L 224 236 L 227 236 L 228 237 L 230 236 L 231 238 L 228 240 L 224 239 L 222 242 L 219 242 L 218 240 L 216 239 L 207 242 L 205 240 L 205 238"/>
    <path pathLength="1" d="M 339 558 L 340 557 L 370 557 L 371 558 L 370 560 L 340 560 L 339 559"/>
    <path pathLength="1" d="M 339 538 L 340 537 L 370 537 L 371 538 L 370 540 L 340 540 L 339 539"/>
    <path pathLength="1" d="M 757 236 L 758 235 L 760 236 L 762 235 L 766 235 L 767 236 L 766 238 L 765 238 L 767 237 L 769 238 L 770 236 L 772 236 L 773 238 L 771 239 L 773 240 L 775 239 L 776 242 L 773 243 L 770 241 L 764 241 L 763 240 L 758 241 L 757 239 L 759 238 L 757 237"/>
    <path pathLength="1" d="M 295 599 L 296 598 L 325 598 L 326 599 L 325 601 L 296 601 L 295 600"/>
    <path pathLength="1" d="M 179 601 L 180 600 L 208 600 L 209 601 L 208 603 L 180 603 L 179 602"/>
    <path pathLength="1" d="M 158 220 L 153 227 L 150 233 L 150 236 L 157 236 L 159 238 L 159 241 L 161 241 L 162 238 L 165 236 L 165 234 L 162 233 L 162 222 L 161 220 L 159 220"/>
    <path pathLength="1" d="M 116 826 L 117 825 L 144 825 L 145 826 L 144 828 L 117 828 L 116 827"/>
    <path pathLength="1" d="M 253 640 L 254 639 L 281 639 L 282 640 L 281 642 L 254 642 L 253 641"/>
    <path pathLength="1" d="M 430 417 L 431 416 L 458 416 L 459 417 L 458 419 L 431 419 L 430 418"/>
    <path pathLength="1" d="M 245 221 L 244 223 L 241 222 L 240 223 L 236 223 L 236 229 L 240 229 L 241 228 L 244 229 L 257 229 L 256 228 L 257 223 L 255 222 L 249 223 L 248 221 L 246 221"/>
    <path pathLength="1" d="M 305 639 L 306 638 L 332 638 L 333 639 L 332 641 L 306 641 L 305 640"/>
    <path pathLength="1" d="M 342 518 L 343 517 L 369 517 L 370 518 L 369 520 L 343 520 L 342 519"/>
    <path pathLength="1" d="M 501 604 L 503 603 L 505 607 L 505 629 L 504 630 L 502 629 L 502 607 L 501 605"/>
    <path pathLength="1" d="M 253 660 L 254 659 L 279 659 L 280 660 L 279 662 L 254 662 L 253 661"/>
    <path pathLength="1" d="M 175 237 L 178 236 L 179 239 L 179 238 L 182 236 L 187 236 L 189 239 L 191 238 L 193 239 L 194 241 L 193 242 L 191 241 L 190 242 L 187 242 L 185 239 L 183 239 L 182 241 L 178 242 L 176 241 L 174 238"/>
    <path pathLength="1" d="M 192 621 L 193 620 L 217 620 L 218 621 L 217 623 L 193 623 L 192 622"/>
    <path pathLength="1" d="M 502 351 L 503 350 L 505 351 L 505 375 L 504 376 L 502 375 L 502 352"/>
    <path pathLength="1" d="M 767 278 L 768 277 L 792 277 L 793 278 L 792 280 L 768 280 L 767 279"/>
    <path pathLength="1" d="M 143 220 L 139 222 L 139 224 L 143 224 L 144 225 L 144 241 L 147 241 L 147 222 L 146 220 L 144 220"/>
    <path pathLength="1" d="M 841 219 L 839 220 L 839 223 L 841 222 L 843 223 L 843 238 L 844 240 L 846 240 L 846 219 L 842 219"/>
    <path pathLength="1" d="M 347 578 L 348 577 L 371 577 L 372 578 L 371 580 L 348 580 L 347 579"/>
    <path pathLength="1" d="M 350 498 L 351 497 L 374 497 L 375 498 L 374 500 L 351 500 L 350 499"/>
    <path pathLength="1" d="M 392 537 L 393 536 L 415 536 L 416 537 L 415 539 L 393 539 L 392 538"/>
    <path pathLength="1" d="M 217 500 L 218 499 L 240 499 L 241 500 L 240 502 L 218 502 L 217 501"/>
    <path pathLength="1" d="M 401 497 L 402 496 L 424 496 L 425 497 L 424 499 L 402 499 L 401 498"/>
    <path pathLength="1" d="M 201 460 L 202 459 L 224 459 L 225 460 L 224 462 L 202 462 L 201 461"/>
    <path pathLength="1" d="M 279 720 L 280 719 L 301 719 L 302 720 L 301 722 L 280 722 L 279 721"/>
    <path pathLength="1" d="M 174 702 L 175 701 L 196 701 L 197 702 L 196 704 L 175 704 L 174 703"/>
    <path pathLength="1" d="M 770 542 L 771 541 L 792 541 L 793 542 L 792 544 L 771 544 L 770 543"/>
    <path pathLength="1" d="M 384 597 L 385 596 L 405 596 L 406 597 L 405 599 L 385 599 L 384 598"/>
    <path pathLength="1" d="M 297 579 L 298 578 L 318 578 L 319 579 L 318 581 L 298 581 L 297 580"/>
    <path pathLength="1" d="M 177 561 L 178 560 L 198 560 L 199 561 L 198 563 L 178 563 L 177 562"/>
    <path pathLength="1" d="M 397 517 L 398 516 L 418 516 L 419 517 L 418 519 L 398 519 L 397 518"/>
    <path pathLength="1" d="M 460 299 L 461 298 L 481 298 L 482 299 L 481 301 L 461 301 L 460 300"/>
    <path pathLength="1" d="M 319 237 L 320 236 L 325 236 L 326 237 L 332 236 L 333 237 L 336 237 L 337 239 L 335 241 L 332 239 L 329 239 L 328 241 L 320 242 L 318 240 L 318 238"/>
    <path pathLength="1" d="M 841 220 L 842 219 L 845 219 L 846 220 L 846 238 L 845 239 L 843 238 L 843 222 L 841 221"/>
    <path pathLength="1" d="M 158 221 L 160 220 L 162 222 L 162 239 L 161 240 L 159 239 L 159 225 L 156 224 L 157 222"/>
    <path pathLength="1" d="M 725 236 L 727 235 L 731 237 L 732 236 L 738 236 L 741 235 L 743 239 L 740 241 L 737 241 L 736 240 L 734 241 L 727 241 L 725 239 L 725 237"/>
    <path pathLength="1" d="M 177 722 L 178 721 L 197 721 L 198 722 L 197 724 L 178 724 L 177 723"/>
    <path pathLength="1" d="M 243 600 L 244 599 L 263 599 L 264 600 L 263 602 L 244 602 L 243 601"/>
    <path pathLength="1" d="M 295 539 L 296 538 L 315 538 L 316 539 L 315 541 L 296 541 L 295 540"/>
    <path pathLength="1" d="M 631 538 L 632 537 L 651 537 L 652 538 L 651 540 L 632 540 L 631 539"/>
    <path pathLength="1" d="M 740 521 L 741 520 L 760 520 L 761 521 L 760 523 L 741 523 L 740 522"/>
    <path pathLength="1" d="M 142 481 L 143 480 L 162 480 L 163 481 L 162 483 L 143 483 L 142 482"/>
    <path pathLength="1" d="M 782 236 L 784 235 L 786 238 L 787 238 L 789 235 L 792 235 L 793 236 L 796 235 L 797 236 L 794 240 L 793 240 L 792 238 L 791 240 L 788 240 L 787 241 L 783 240 L 782 237"/>
    <path pathLength="1" d="M 911 727 L 912 726 L 914 727 L 914 745 L 913 746 L 911 745 L 911 728"/>
    <path pathLength="1" d="M 317 699 L 318 698 L 336 698 L 337 699 L 336 701 L 318 701 L 317 700"/>
    <path pathLength="1" d="M 186 581 L 187 580 L 205 580 L 206 581 L 205 583 L 187 583 L 186 582"/>
    <path pathLength="1" d="M 144 222 L 145 221 L 147 222 L 147 240 L 146 241 L 144 240 L 144 223"/>
    <path pathLength="1" d="M 96 815 L 96 823 L 95 824 L 90 824 L 98 824 L 100 819 L 99 822 L 97 823 L 96 822 L 96 816"/>
    <path pathLength="1" d="M 328 719 L 329 718 L 346 718 L 347 719 L 346 721 L 329 721 L 328 720"/>
    <path pathLength="1" d="M 308 659 L 309 658 L 326 658 L 327 659 L 326 661 L 309 661 L 308 660"/>
    <path pathLength="1" d="M 152 642 L 153 641 L 170 641 L 171 642 L 170 644 L 153 644 L 152 643"/>
    <path pathLength="1" d="M 98 580 L 99 579 L 101 580 L 101 597 L 100 598 L 98 597 L 98 581"/>
    <path pathLength="1" d="M 293 559 L 294 558 L 311 558 L 312 559 L 311 561 L 294 561 L 293 560"/>
    <path pathLength="1" d="M 234 540 L 235 539 L 252 539 L 253 540 L 252 542 L 235 542 L 234 541"/>
    <path pathLength="1" d="M 783 522 L 784 521 L 801 521 L 802 522 L 801 524 L 784 524 L 783 523"/>
    <path pathLength="1" d="M 223 520 L 224 519 L 241 519 L 242 520 L 241 522 L 224 522 L 223 521"/>
    <path pathLength="1" d="M 283 519 L 284 518 L 301 518 L 302 519 L 301 521 L 284 521 L 283 520"/>
    <path pathLength="1" d="M 210 480 L 211 479 L 228 479 L 229 480 L 228 482 L 211 482 L 210 481"/>
    <path pathLength="1" d="M 92 397 L 93 396 L 95 397 L 95 414 L 94 415 L 92 414 L 92 398"/>
    <path pathLength="1" d="M 388 617 L 389 616 L 405 616 L 406 617 L 405 619 L 389 619 L 388 618"/>
    <path pathLength="1" d="M 427 576 L 428 575 L 444 575 L 445 576 L 444 578 L 428 578 L 427 577"/>
    <path pathLength="1" d="M 599 537 L 600 536 L 616 536 L 617 537 L 616 539 L 600 539 L 599 538"/>
    <path pathLength="1" d="M 632 518 L 633 517 L 649 517 L 650 518 L 649 520 L 633 520 L 632 519"/>
    <path pathLength="1" d="M 596 517 L 597 516 L 613 516 L 614 517 L 613 519 L 597 519 L 596 518"/>
    <path pathLength="1" d="M 416 457 L 417 456 L 433 456 L 434 457 L 433 459 L 417 459 L 416 458"/>
    <path pathLength="1" d="M 769 275 L 770 274 L 786 274 L 787 275 L 786 277 L 770 277 L 769 276"/>
    <path pathLength="1" d="M 232 721 L 233 720 L 248 720 L 249 721 L 248 723 L 233 723 L 232 722"/>
    <path pathLength="1" d="M 159 662 L 160 661 L 175 661 L 176 662 L 175 664 L 160 664 L 159 663"/>
    <path pathLength="1" d="M 204 641 L 205 640 L 220 640 L 221 641 L 220 643 L 205 643 L 204 642"/>
    <path pathLength="1" d="M 249 620 L 250 619 L 265 619 L 266 620 L 265 622 L 250 622 L 249 621"/>
    <path pathLength="1" d="M 138 320 L 139 319 L 154 319 L 155 320 L 154 322 L 139 322 L 138 321"/>
    <path pathLength="1" d="M 838 275 L 839 274 L 854 274 L 855 275 L 854 277 L 839 277 L 838 276"/>
    <path pathLength="1" d="M 691 237 L 694 236 L 695 238 L 696 236 L 703 236 L 704 239 L 702 241 L 698 241 L 697 240 L 696 241 L 693 241 L 691 238"/>
    <path pathLength="1" d="M 222 701 L 223 700 L 237 700 L 238 701 L 237 703 L 223 703 L 222 702"/>
    <path pathLength="1" d="M 359 698 L 360 697 L 374 697 L 375 698 L 374 700 L 360 700 L 359 699"/>
    <path pathLength="1" d="M 413 696 L 414 695 L 428 695 L 429 696 L 428 698 L 414 698 L 413 697"/>
    <path pathLength="1" d="M 444 615 L 445 614 L 459 614 L 460 615 L 459 617 L 445 617 L 444 616"/>
    <path pathLength="1" d="M 734 541 L 735 540 L 749 540 L 750 541 L 749 543 L 735 543 L 734 542"/>
    <path pathLength="1" d="M 367 718 L 368 717 L 381 717 L 382 718 L 381 720 L 368 720 L 367 719"/>
    <path pathLength="1" d="M 212 661 L 213 660 L 226 660 L 227 661 L 226 663 L 213 663 L 212 662"/>
    <path pathLength="1" d="M 415 636 L 416 635 L 429 635 L 430 636 L 429 638 L 416 638 L 415 637"/>
    <path pathLength="1" d="M 442 635 L 443 634 L 456 634 L 457 635 L 456 637 L 443 637 L 442 636"/>
    <path pathLength="1" d="M 396 557 L 397 556 L 410 556 L 411 557 L 410 559 L 397 559 L 396 558"/>
    <path pathLength="1" d="M 429 556 L 430 555 L 443 555 L 444 556 L 443 558 L 430 558 L 429 557"/>
    <path pathLength="1" d="M 415 477 L 416 476 L 429 476 L 430 477 L 429 479 L 416 479 L 415 478"/>
    <path pathLength="1" d="M 138 723 L 139 722 L 151 722 L 152 723 L 151 725 L 139 725 L 138 724"/>
    <path pathLength="1" d="M 269 700 L 270 699 L 282 699 L 283 700 L 282 702 L 270 702 L 269 701"/>
    <path pathLength="1" d="M 417 656 L 418 655 L 430 655 L 431 656 L 430 658 L 418 658 L 417 657"/>
    <path pathLength="1" d="M 147 622 L 148 621 L 160 621 L 161 622 L 160 624 L 148 624 L 147 623"/>
    <path pathLength="1" d="M 355 598 L 356 597 L 368 597 L 369 598 L 368 600 L 356 600 L 355 599"/>
    <path pathLength="1" d="M 138 582 L 139 581 L 151 581 L 152 582 L 151 584 L 139 584 L 138 583"/>
    <path pathLength="1" d="M 807 543 L 808 542 L 820 542 L 821 543 L 820 545 L 808 545 L 807 544"/>
    <path pathLength="1" d="M 308 237 L 310 236 L 312 238 L 312 240 L 310 242 L 308 242 L 305 244 L 303 241 L 301 240 L 301 238 L 302 237 L 307 237"/>
    <path pathLength="1" d="M 861 785 L 860 788 L 858 787 L 853 787 L 854 789 L 856 790 L 861 790 L 863 791 L 863 785 L 862 785"/>
    <path pathLength="1" d="M 807 830 L 808 829 L 819 829 L 820 830 L 819 832 L 808 832 L 807 831"/>
    <path pathLength="1" d="M 790 829 L 791 828 L 802 828 L 803 829 L 802 831 L 791 831 L 790 830"/>
    <path pathLength="1" d="M 352 638 L 353 637 L 364 637 L 365 638 L 364 640 L 353 640 L 352 639"/>
    <path pathLength="1" d="M 354 618 L 355 617 L 366 617 L 367 618 L 366 620 L 355 620 L 354 619"/>
    <path pathLength="1" d="M 449 595 L 450 594 L 461 594 L 462 595 L 461 597 L 450 597 L 449 596"/>
    <path pathLength="1" d="M 446 496 L 447 495 L 458 495 L 459 496 L 458 498 L 447 498 L 446 497"/>
    <path pathLength="1" d="M 466 456 L 467 455 L 478 455 L 479 456 L 478 458 L 467 458 L 466 457"/>
    <path pathLength="1" d="M 843 832 L 844 831 L 854 831 L 855 832 L 854 834 L 844 834 L 843 833"/>
    <path pathLength="1" d="M 833 707 L 834 706 L 844 706 L 845 707 L 844 709 L 834 709 L 833 708"/>
    <path pathLength="1" d="M 743 703 L 744 702 L 754 702 L 755 703 L 754 705 L 744 705 L 743 704"/>
    <path pathLength="1" d="M 595 696 L 596 695 L 606 695 L 607 696 L 606 698 L 596 698 L 595 697"/>
    <path pathLength="1" d="M 442 655 L 443 654 L 453 654 L 454 655 L 453 657 L 443 657 L 442 656"/>
    <path pathLength="1" d="M 502 636 L 503 635 L 505 636 L 505 646 L 504 647 L 502 646 L 502 637"/>
    <path pathLength="1" d="M 421 616 L 422 615 L 432 615 L 433 616 L 432 618 L 422 618 L 421 617"/>
    <path pathLength="1" d="M 98 616 L 99 615 L 101 616 L 101 626 L 100 627 L 98 626 L 98 617"/>
    <path pathLength="1" d="M 98 604 L 99 603 L 101 604 L 101 614 L 100 615 L 98 614 L 98 605"/>
    <path pathLength="1" d="M 138 602 L 139 601 L 149 601 L 150 602 L 149 604 L 139 604 L 138 603"/>
    <path pathLength="1" d="M 397 577 L 398 576 L 408 576 L 409 577 L 408 579 L 398 579 L 397 578"/>
    <path pathLength="1" d="M 666 539 L 667 538 L 677 538 L 678 539 L 677 541 L 667 541 L 666 540"/>
    <path pathLength="1" d="M 827 523 L 828 522 L 838 522 L 839 523 L 838 525 L 828 525 L 827 524"/>
    <path pathLength="1" d="M 457 476 L 458 475 L 468 475 L 469 476 L 468 478 L 458 478 L 457 477"/>
    <path pathLength="1" d="M 807 275 L 808 274 L 818 274 L 819 275 L 818 277 L 808 277 L 807 276"/>
    <path pathLength="1" d="M 218 224 L 219 223 L 223 223 L 224 226 L 223 227 L 221 226 L 219 229 L 216 229 L 215 227 L 218 226 L 218 225"/>
    <path pathLength="1" d="M 501 717 L 502 716 L 504 717 L 504 726 L 503 727 L 501 726 L 501 718"/>
    <path pathLength="1" d="M 808 706 L 809 705 L 818 705 L 819 706 L 818 708 L 809 708 L 808 707"/>
    <path pathLength="1" d="M 634 698 L 635 697 L 644 697 L 645 698 L 644 700 L 635 700 L 634 699"/>
    <path pathLength="1" d="M 357 658 L 358 657 L 367 657 L 368 658 L 367 660 L 358 660 L 357 659"/>
    <path pathLength="1" d="M 841 544 L 842 543 L 851 543 L 852 544 L 851 546 L 842 546 L 841 545"/>
    <path pathLength="1" d="M 702 540 L 703 539 L 712 539 L 713 540 L 712 542 L 703 542 L 702 541"/>
    <path pathLength="1" d="M 676 519 L 677 518 L 686 518 L 687 519 L 686 521 L 677 521 L 676 520"/>
    <path pathLength="1" d="M 98 368 L 99 367 L 101 368 L 101 377 L 100 378 L 98 377 L 98 369"/>
    <path pathLength="1" d="M 98 357 L 99 356 L 101 357 L 101 366 L 100 367 L 98 366 L 98 358"/>
    <path pathLength="1" d="M 502 333 L 503 332 L 505 333 L 505 342 L 504 343 L 502 342 L 502 334"/>
    <path pathLength="1" d="M 283 237 L 284 236 L 288 236 L 289 237 L 285 242 L 282 242 L 281 241 L 282 239 L 284 239 L 283 238"/>
    <path pathLength="1" d="M 754 223 L 755 222 L 761 222 L 762 223 L 762 227 L 761 228 L 757 228 L 754 226 L 754 224"/>
    <path pathLength="1" d="M 175 223 L 176 222 L 180 222 L 181 224 L 180 225 L 177 225 L 179 226 L 178 228 L 175 227 L 174 224"/>
    <path pathLength="1" d="M 823 221 L 825 220 L 827 222 L 826 224 L 828 223 L 829 226 L 828 227 L 824 226 L 823 225 L 823 222"/>
    <path pathLength="1" d="M 716 237 L 717 236 L 719 237 L 719 240 L 718 241 L 711 241 L 710 240 L 711 238 L 715 237"/>
    <path pathLength="1" d="M 434 715 L 435 714 L 443 714 L 444 715 L 443 717 L 435 717 L 434 716"/>
    <path pathLength="1" d="M 721 702 L 722 701 L 730 701 L 731 702 L 730 704 L 722 704 L 721 703"/>
    <path pathLength="1" d="M 657 699 L 658 698 L 666 698 L 667 699 L 666 701 L 658 701 L 657 700"/>
    <path pathLength="1" d="M 437 695 L 438 694 L 446 694 L 447 695 L 446 697 L 438 697 L 437 696"/>
    <path pathLength="1" d="M 387 637 L 388 636 L 396 636 L 397 637 L 396 639 L 388 639 L 387 638"/>
    <path pathLength="1" d="M 425 596 L 426 595 L 434 595 L 435 596 L 434 598 L 426 598 L 425 597"/>
    <path pathLength="1" d="M 452 575 L 453 574 L 461 574 L 462 575 L 461 577 L 453 577 L 452 576"/>
    <path pathLength="1" d="M 436 536 L 437 535 L 445 535 L 446 536 L 445 538 L 437 538 L 436 537"/>
    <path pathLength="1" d="M 546 535 L 547 534 L 555 534 L 556 535 L 555 537 L 547 537 L 546 536"/>
    <path pathLength="1" d="M 712 520 L 713 519 L 721 519 L 722 520 L 721 522 L 713 522 L 712 521"/>
    <path pathLength="1" d="M 570 516 L 571 515 L 579 515 L 580 516 L 579 518 L 571 518 L 570 517"/>
    <path pathLength="1" d="M 440 516 L 441 515 L 449 515 L 450 516 L 449 518 L 441 518 L 440 517"/>
    <path pathLength="1" d="M 469 515 L 470 514 L 478 514 L 479 515 L 478 517 L 470 517 L 469 516"/>
    <path pathLength="1" d="M 894 204 L 895 203 L 897 204 L 897 212 L 896 213 L 894 212 L 894 205"/>
    <path pathLength="1" d="M 894 189 L 895 188 L 897 189 L 897 197 L 896 198 L 894 197 L 894 190"/>
    <path pathLength="1" d="M 903 184 L 904 183 L 912 183 L 913 184 L 912 186 L 904 186 L 903 185"/>
    <path pathLength="1" d="M 750 236 L 751 235 L 756 236 L 757 239 L 752 241 L 749 239 L 749 237"/>
    <path pathLength="1" d="M 137 489 L 137 493 L 138 494 L 144 494 L 144 490 L 143 489 L 138 489"/>
    <path pathLength="1" d="M 812 223 L 813 222 L 817 222 L 818 223 L 818 226 L 816 227 L 815 225 L 815 226 L 813 227 L 812 224"/>
    <path pathLength="1" d="M 853 219 L 854 218 L 858 218 L 859 220 L 858 221 L 854 221 L 854 222 L 852 223 L 851 222 L 852 219"/>
    <path pathLength="1" d="M 138 780 L 139 779 L 143 779 L 145 780 L 146 782 L 143 784 L 140 784 L 138 781"/>
    <path pathLength="1" d="M 857 274 L 858 273 L 862 273 L 863 276 L 862 277 L 860 276 L 859 277 L 856 277 L 855 276 L 856 274"/>
    <path pathLength="1" d="M 394 717 L 395 716 L 402 716 L 403 717 L 402 719 L 395 719 L 394 718"/>
    <path pathLength="1" d="M 415 716 L 416 715 L 423 715 L 424 716 L 423 718 L 416 718 L 415 717"/>
    <path pathLength="1" d="M 703 701 L 704 700 L 711 700 L 712 701 L 711 703 L 704 703 L 703 702"/>
    <path pathLength="1" d="M 391 697 L 392 696 L 399 696 L 400 697 L 399 699 L 392 699 L 391 698"/>
    <path pathLength="1" d="M 577 695 L 578 694 L 585 694 L 586 695 L 585 697 L 578 697 L 577 696"/>
    <path pathLength="1" d="M 559 694 L 560 693 L 567 693 L 568 694 L 567 696 L 560 696 L 559 695"/>
    <path pathLength="1" d="M 456 694 L 457 693 L 464 693 L 465 694 L 464 696 L 457 696 L 456 695"/>
    <path pathLength="1" d="M 97 671 L 98 670 L 100 671 L 100 678 L 99 679 L 97 678 L 97 672"/>
    <path pathLength="1" d="M 471 594 L 472 593 L 479 593 L 480 594 L 479 596 L 472 596 L 471 595"/>
    <path pathLength="1" d="M 472 574 L 473 573 L 480 573 L 481 574 L 480 576 L 473 576 L 472 575"/>
    <path pathLength="1" d="M 459 555 L 460 554 L 467 554 L 468 555 L 467 557 L 460 557 L 459 556"/>
  </g>
</svg>