<svg xmlns="http://www.w3.org/2000/svg" viewBox="0 0 1000 1000" width="1000" height="1000" role="img" aria-label="Outline agenda-settimanale">
  <g fill="none" stroke="#111" stroke-width="1.43" stroke-linecap="round" stroke-linejoin="round">
    <path pathLength="1" d="M 66 137 L 495 145 L 945 140 L 953 151 L 953 496 L 943 505 L 946 580 L 946 513 L 953 517 L 952 851 L 941 859 L 528 850 L 63 857 L 56 844 L 57 515 L 65 504 L 56 495 L 57 149 L 65 137"/>
    <path pathLength="1" d="M 78 149 L 65 156 L 72 848 L 511 840 L 941 847 L 940 154 L 79 149"/>
    <path pathLength="1" d="M 67 136 L 57 149 L 56 495 L 65 506 L 57 514 L 56 844 L 62 857 L 549 851 L 941 859 L 951 853 L 953 517 L 945 505 L 953 496 L 953 151 L 946 140 L 495 145 L 68 136"/>
    <path pathLength="1" d="M 78 150 L 512 157 L 512 840 L 284 848 L 72 847 L 71 154 L 77 150"/>
    <path pathLength="1" d="M 841 152 L 940 155 L 941 846 L 920 850 L 515 841 L 512 157 L 840 152"/>
    <path pathLength="1" d="M 541 234 L 540 256 L 542 260 L 662 259 L 662 257 L 588 257 L 587 251 L 548 252 L 547 250 L 552 248 L 570 248 L 570 244 L 545 244 L 544 247 L 547 250 L 543 250 L 544 255 L 582 256 L 581 254 L 583 253 L 588 257 L 647 257 L 648 259 L 543 260 L 540 256 L 540 235"/>
    <path pathLength="1" d="M 797 233 L 798 259 L 910 259 L 911 258 L 909 256 L 832 256 L 831 250 L 827 250 L 825 252 L 820 250 L 819 251 L 801 251 L 801 254 L 803 255 L 819 254 L 832 256 L 909 256 L 910 258 L 909 259 L 799 259 L 797 257 L 798 245 L 800 246 L 800 249 L 800 235 L 798 233"/>
    <path pathLength="1" d="M 946 628 L 945 632 L 945 640 L 946 641 L 945 644 L 945 719 L 944 720 L 945 721 L 944 848 L 947 852 L 950 844 L 947 844 L 946 846 L 944 845 L 945 644 L 946 643 L 945 632 L 947 629"/>
    <path pathLength="1" d="M 460 724 L 460 729 L 455 731 L 374 732 L 373 733 L 373 743 L 376 745 L 377 749 L 379 750 L 382 749 L 382 745 L 384 743 L 391 743 L 393 745 L 394 749 L 398 748 L 399 743 L 408 743 L 411 749 L 414 749 L 416 743 L 425 743 L 427 749 L 431 749 L 431 744 L 432 743 L 441 743 L 443 748 L 447 748 L 447 744 L 445 744 L 444 742 L 443 744 L 441 743 L 432 743 L 431 744 L 415 743 L 410 744 L 408 742 L 411 739 L 415 740 L 426 740 L 427 739 L 443 740 L 431 740 L 430 739 L 431 734 L 442 733 L 444 735 L 444 738 L 446 740 L 448 740 L 449 742 L 458 742 L 459 743 L 459 748 L 464 748 L 464 743 L 465 742 L 474 742 L 475 747 L 480 748 L 480 743 L 483 741 L 483 731 L 479 729 L 479 724 L 477 724 L 476 726 L 477 728 L 475 730 L 464 730 L 463 726 L 461 724"/>
    <path pathLength="1" d="M 487 232 L 485 233 L 485 250 L 487 251 L 487 257 L 485 259 L 481 258 L 481 256 L 484 255 L 483 251 L 481 251 L 481 254 L 478 255 L 477 254 L 478 250 L 477 251 L 474 250 L 471 251 L 458 251 L 457 250 L 453 251 L 452 254 L 455 254 L 456 256 L 453 257 L 452 259 L 413 259 L 412 258 L 413 256 L 451 256 L 383 256 L 382 255 L 373 255 L 372 258 L 486 259 L 487 257 L 487 233"/>
    <path pathLength="1" d="M 227 230 L 227 246 L 227 231 L 228 230 L 230 231 L 230 253 L 228 256 L 163 256 L 162 255 L 130 255 L 129 253 L 107 253 L 106 252 L 106 247 L 103 247 L 103 250 L 106 252 L 106 254 L 104 255 L 103 253 L 102 253 L 103 255 L 229 256 L 230 253 L 230 231 L 228 230"/>
    <path pathLength="1" d="M 63 514 L 63 516 L 65 519 L 65 561 L 64 562 L 65 564 L 65 596 L 67 600 L 67 649 L 65 651 L 65 667 L 64 668 L 65 671 L 65 677 L 63 682 L 65 679 L 65 674 L 66 673 L 64 670 L 64 668 L 65 667 L 65 651 L 67 650 L 67 615 L 68 614 L 67 612 L 67 600 L 65 596 L 65 564 L 64 563 L 65 561 L 65 519 L 63 515"/>
    <path pathLength="1" d="M 485 541 L 485 557 L 487 558 L 487 564 L 485 566 L 431 567 L 430 566 L 431 564 L 457 564 L 431 564 L 430 565 L 371 565 L 371 567 L 465 567 L 466 566 L 468 567 L 469 566 L 486 566 L 487 565 L 487 541 L 486 541"/>
    <path pathLength="1" d="M 363 231 L 363 254 L 362 255 L 237 254 L 237 256 L 241 256 L 242 257 L 345 257 L 346 258 L 362 258 L 365 256 L 365 231 L 364 231"/>
    <path pathLength="1" d="M 617 190 L 616 191 L 600 191 L 598 193 L 596 192 L 590 192 L 589 191 L 580 191 L 578 192 L 578 197 L 580 196 L 585 196 L 588 197 L 591 201 L 590 202 L 581 202 L 580 200 L 578 200 L 578 207 L 581 207 L 582 208 L 584 207 L 592 208 L 596 206 L 608 207 L 609 208 L 611 207 L 618 207 L 619 208 L 622 208 L 624 210 L 627 210 L 628 209 L 627 202 L 616 201 L 615 202 L 601 202 L 600 203 L 596 203 L 595 200 L 592 199 L 594 195 L 606 196 L 607 197 L 615 196 L 616 197 L 621 197 L 625 199 L 627 196 L 627 193 L 626 196 L 622 196 L 621 197 L 616 197 L 615 196 L 607 197 L 605 195 L 603 196 L 602 194 L 600 193 L 601 191 L 605 191 L 606 192 L 607 191 L 613 191 L 614 192 L 618 191 L 620 194 L 621 194 L 622 191 L 625 192 L 618 190"/>
    <path pathLength="1" d="M 669 233 L 669 258 L 670 259 L 791 259 L 791 257 L 672 257 L 671 256 L 671 233 L 670 233"/>
    <path pathLength="1" d="M 418 500 L 417 502 L 398 502 L 397 504 L 398 507 L 408 507 L 409 509 L 412 509 L 413 510 L 412 512 L 396 512 L 394 513 L 393 511 L 391 510 L 391 511 L 388 513 L 388 516 L 389 517 L 420 517 L 421 512 L 416 512 L 415 510 L 419 507 L 423 507 L 425 505 L 429 505 L 430 507 L 437 507 L 438 506 L 448 507 L 450 508 L 452 511 L 451 512 L 448 512 L 447 511 L 427 512 L 427 517 L 448 517 L 450 519 L 453 518 L 452 516 L 453 514 L 452 511 L 452 505 L 453 504 L 451 502 L 448 502 L 444 500 L 442 502 L 431 502 L 430 501 L 427 503 L 425 503 L 423 501 L 421 502 L 420 500 L 419 500"/>
    <path pathLength="1" d="M 315 784 L 314 785 L 261 785 L 260 786 L 236 786 L 236 788 L 280 788 L 281 787 L 363 786 L 363 784 L 316 784"/>
    <path pathLength="1" d="M 316 697 L 315 698 L 246 698 L 245 699 L 236 699 L 236 701 L 345 700 L 346 699 L 363 699 L 363 697 L 317 697"/>
    <path pathLength="1" d="M 343 653 L 342 654 L 265 654 L 264 655 L 236 655 L 236 657 L 303 657 L 304 656 L 361 656 L 363 655 L 363 653 L 344 653"/>
    <path pathLength="1" d="M 443 189 L 439 191 L 436 191 L 435 190 L 425 190 L 424 191 L 405 190 L 404 194 L 406 195 L 414 195 L 415 196 L 415 200 L 414 201 L 397 200 L 396 201 L 396 204 L 397 206 L 402 206 L 403 205 L 405 206 L 418 206 L 420 205 L 420 203 L 422 202 L 423 204 L 425 203 L 426 206 L 443 206 L 452 209 L 453 208 L 452 205 L 453 203 L 452 201 L 446 201 L 445 200 L 441 200 L 440 201 L 429 201 L 426 200 L 424 202 L 420 202 L 418 200 L 415 199 L 415 198 L 418 197 L 420 194 L 424 194 L 427 196 L 430 196 L 431 195 L 433 196 L 438 196 L 441 195 L 442 196 L 447 196 L 449 198 L 451 198 L 452 197 L 452 192 L 446 189 L 444 189"/>
    <path pathLength="1" d="M 102 276 L 102 278 L 124 278 L 125 279 L 229 279 L 229 277 L 211 277 L 210 276 L 103 276"/>
    <path pathLength="1" d="M 343 805 L 342 806 L 300 806 L 299 807 L 246 807 L 245 808 L 237 808 L 237 810 L 314 809 L 315 808 L 361 808 L 363 807 L 363 805 L 344 805"/>
    <path pathLength="1" d="M 335 762 L 334 763 L 237 764 L 237 766 L 238 767 L 255 767 L 256 766 L 355 765 L 356 764 L 363 764 L 363 762 L 336 762"/>
    <path pathLength="1" d="M 237 277 L 237 279 L 274 279 L 275 280 L 364 280 L 363 278 L 238 277"/>
    <path pathLength="1" d="M 220 742 L 219 743 L 105 744 L 102 745 L 103 747 L 228 745 L 228 743 L 226 742 L 221 742"/>
    <path pathLength="1" d="M 346 740 L 345 741 L 294 741 L 293 742 L 238 742 L 237 745 L 261 745 L 262 744 L 311 744 L 312 743 L 362 743 L 363 742 L 362 740 L 347 740"/>
    <path pathLength="1" d="M 217 786 L 216 787 L 161 787 L 160 788 L 103 788 L 103 791 L 118 791 L 119 790 L 180 790 L 181 789 L 228 789 L 228 786 L 218 786"/>
    <path pathLength="1" d="M 303 719 L 302 720 L 246 720 L 245 721 L 237 721 L 237 723 L 363 721 L 363 719 L 304 719"/>
    <path pathLength="1" d="M 174 699 L 173 700 L 108 700 L 107 701 L 103 701 L 103 703 L 229 701 L 229 699 L 175 699"/>
    <path pathLength="1" d="M 315 675 L 314 676 L 258 676 L 257 677 L 237 677 L 237 679 L 275 679 L 276 678 L 350 678 L 351 677 L 363 677 L 363 675 L 316 675"/>
    <path pathLength="1" d="M 339 631 L 338 632 L 253 632 L 252 633 L 237 633 L 237 635 L 361 634 L 363 633 L 363 631 L 340 631"/>
    <path pathLength="1" d="M 348 609 L 347 610 L 248 610 L 247 611 L 237 611 L 237 613 L 363 612 L 362 609 L 349 609"/>
    <path pathLength="1" d="M 341 587 L 340 588 L 240 588 L 237 589 L 237 591 L 277 591 L 278 590 L 363 590 L 362 587 L 342 587"/>
    <path pathLength="1" d="M 333 565 L 332 566 L 238 566 L 237 569 L 270 569 L 271 568 L 363 568 L 362 565 L 334 565"/>
    <path pathLength="1" d="M 239 522 L 237 523 L 237 525 L 363 524 L 363 522 L 240 522"/>
    <path pathLength="1" d="M 238 344 L 237 345 L 238 347 L 346 347 L 347 348 L 363 348 L 363 345 L 273 345 L 272 344 L 239 344"/>
    <path pathLength="1" d="M 179 721 L 178 722 L 104 722 L 103 725 L 229 723 L 228 721 L 180 721"/>
    <path pathLength="1" d="M 177 677 L 176 678 L 106 678 L 105 679 L 102 679 L 103 681 L 136 681 L 137 680 L 212 680 L 213 679 L 228 679 L 228 677 L 178 677"/>
    <path pathLength="1" d="M 177 655 L 176 656 L 105 656 L 103 657 L 103 659 L 123 659 L 124 658 L 216 658 L 217 657 L 229 657 L 228 655 L 178 655"/>
    <path pathLength="1" d="M 180 633 L 179 634 L 104 634 L 103 637 L 132 637 L 133 636 L 200 636 L 201 635 L 228 635 L 229 633 L 181 633"/>
    <path pathLength="1" d="M 135 589 L 134 590 L 102 590 L 102 592 L 228 591 L 228 589 L 136 589"/>
    <path pathLength="1" d="M 239 544 L 237 545 L 237 547 L 363 546 L 363 544 L 240 544"/>
    <path pathLength="1" d="M 240 500 L 237 501 L 237 503 L 362 503 L 363 502 L 363 500 L 241 500"/>
    <path pathLength="1" d="M 237 478 L 238 481 L 361 481 L 363 480 L 363 478 L 238 478"/>
    <path pathLength="1" d="M 237 412 L 237 414 L 302 414 L 303 415 L 362 415 L 363 414 L 363 412 L 238 412"/>
    <path pathLength="1" d="M 105 411 L 103 412 L 103 414 L 229 414 L 229 412 L 106 411"/>
    <path pathLength="1" d="M 239 389 L 237 390 L 237 392 L 363 392 L 363 390 L 254 390 L 253 389 L 240 389"/>
    <path pathLength="1" d="M 237 367 L 237 369 L 243 369 L 244 370 L 363 370 L 363 368 L 323 368 L 322 367 L 238 367"/>
    <path pathLength="1" d="M 103 344 L 102 346 L 228 347 L 228 344 L 104 344"/>
    <path pathLength="1" d="M 237 322 L 237 324 L 264 324 L 265 325 L 363 325 L 363 323 L 238 322"/>
    <path pathLength="1" d="M 103 321 L 103 323 L 105 324 L 229 324 L 229 322 L 104 321"/>
    <path pathLength="1" d="M 237 300 L 237 302 L 319 302 L 320 303 L 363 303 L 362 300 L 238 300"/>
    <path pathLength="1" d="M 194 808 L 193 809 L 103 810 L 103 812 L 104 813 L 108 813 L 109 812 L 164 812 L 165 811 L 211 811 L 212 810 L 228 810 L 228 808 L 195 808"/>
    <path pathLength="1" d="M 220 764 L 219 765 L 165 765 L 164 766 L 106 766 L 103 767 L 103 769 L 126 769 L 127 768 L 183 768 L 184 767 L 228 767 L 228 765 L 226 764 L 221 764"/>
    <path pathLength="1" d="M 226 500 L 225 501 L 102 501 L 102 503 L 228 503 L 228 501 L 227 501"/>
    <path pathLength="1" d="M 238 456 L 237 457 L 238 459 L 362 459 L 363 458 L 363 456 L 239 456"/>
    <path pathLength="1" d="M 102 299 L 103 301 L 191 301 L 192 302 L 228 302 L 228 300 L 226 299 L 103 299"/>
    <path pathLength="1" d="M 153 611 L 152 612 L 103 612 L 103 614 L 182 614 L 183 613 L 188 614 L 189 613 L 228 613 L 228 611 L 154 611"/>
    <path pathLength="1" d="M 213 544 L 212 545 L 103 545 L 103 547 L 104 548 L 228 547 L 228 545 L 226 544 L 214 544"/>
    <path pathLength="1" d="M 151 478 L 150 479 L 103 479 L 103 481 L 228 481 L 228 478 L 152 478"/>
    <path pathLength="1" d="M 105 456 L 103 457 L 103 459 L 228 459 L 228 456 L 106 456"/>
    <path pathLength="1" d="M 106 567 L 103 568 L 103 570 L 228 569 L 228 567 L 107 567"/>
    <path pathLength="1" d="M 103 389 L 103 391 L 142 391 L 143 392 L 228 392 L 227 389 L 104 389"/>
    <path pathLength="1" d="M 103 523 L 103 525 L 228 525 L 228 523 L 104 523"/>
    <path pathLength="1" d="M 103 434 L 103 436 L 228 436 L 228 434 L 104 434"/>
    <path pathLength="1" d="M 103 367 L 103 369 L 228 369 L 228 367 L 104 367"/>
    <path pathLength="1" d="M 238 479 L 239 478 L 361 478 L 362 479 L 361 481 L 239 481 L 238 480"/>
    <path pathLength="1" d="M 238 457 L 239 456 L 361 456 L 362 457 L 361 459 L 239 459 L 238 458"/>
    <path pathLength="1" d="M 104 457 L 105 456 L 227 456 L 228 457 L 227 459 L 105 459 L 104 458"/>
    <path pathLength="1" d="M 717 189 L 716 190 L 708 190 L 706 191 L 705 193 L 706 196 L 718 196 L 721 194 L 725 194 L 726 196 L 747 196 L 748 197 L 748 200 L 747 201 L 739 201 L 738 202 L 736 202 L 735 200 L 733 200 L 730 203 L 726 203 L 725 202 L 725 199 L 722 199 L 721 201 L 718 201 L 717 202 L 715 201 L 707 201 L 705 205 L 706 207 L 708 206 L 712 206 L 713 207 L 719 206 L 720 207 L 723 207 L 726 205 L 730 205 L 732 207 L 735 206 L 742 207 L 744 206 L 745 207 L 755 207 L 757 209 L 761 208 L 760 206 L 760 201 L 754 201 L 751 199 L 752 191 L 742 189 L 741 190 L 735 190 L 734 191 L 725 190 L 724 192 L 721 192 L 720 189 L 718 189"/>
    <path pathLength="1" d="M 239 501 L 240 500 L 361 500 L 362 501 L 361 503 L 240 503 L 239 502"/>
    <path pathLength="1" d="M 670 324 L 670 326 L 672 327 L 791 326 L 790 324 L 671 324"/>
    <path pathLength="1" d="M 670 718 L 670 720 L 684 720 L 685 721 L 791 721 L 791 719 L 752 719 L 751 718 L 746 718 L 745 719 L 743 718 L 671 718"/>
    <path pathLength="1" d="M 542 803 L 541 805 L 544 806 L 658 806 L 659 807 L 662 806 L 662 804 L 543 803"/>
    <path pathLength="1" d="M 671 543 L 670 544 L 671 546 L 791 546 L 791 544 L 672 543"/>
    <path pathLength="1" d="M 670 783 L 670 785 L 791 786 L 791 784 L 751 784 L 750 783 L 671 783"/>
    <path pathLength="1" d="M 541 652 L 541 654 L 662 655 L 662 653 L 657 653 L 656 652 L 542 652"/>
    <path pathLength="1" d="M 548 456 L 547 457 L 542 457 L 542 459 L 662 459 L 662 457 L 592 457 L 591 456 L 589 457 L 568 457 L 567 456 L 559 457 L 558 456 L 549 456"/>
    <path pathLength="1" d="M 541 674 L 541 676 L 612 676 L 613 677 L 661 677 L 662 675 L 661 674 L 542 674"/>
    <path pathLength="1" d="M 541 565 L 541 567 L 662 567 L 662 565 L 542 565"/>
    <path pathLength="1" d="M 670 435 L 670 437 L 791 437 L 791 435 L 671 435"/>
    <path pathLength="1" d="M 541 435 L 541 437 L 662 437 L 662 435 L 542 435"/>
    <path pathLength="1" d="M 670 413 L 670 415 L 791 415 L 791 413 L 671 413"/>
    <path pathLength="1" d="M 541 413 L 541 415 L 662 415 L 662 413 L 542 413"/>
    <path pathLength="1" d="M 541 391 L 541 393 L 662 393 L 662 391 L 542 391"/>
    <path pathLength="1" d="M 541 302 L 541 304 L 662 304 L 662 302 L 542 302"/>
    <path pathLength="1" d="M 541 280 L 541 282 L 662 282 L 662 280 L 542 280"/>
    <path pathLength="1" d="M 544 738 L 542 739 L 542 741 L 661 742 L 662 740 L 660 739 L 556 739 L 555 738 L 552 739 L 551 738 L 545 738"/>
    <path pathLength="1" d="M 670 804 L 670 806 L 672 807 L 762 807 L 763 808 L 790 808 L 789 805 L 705 805 L 704 804 L 671 804"/>
    <path pathLength="1" d="M 672 739 L 670 740 L 670 742 L 790 743 L 789 740 L 681 740 L 680 739 L 673 739"/>
    <path pathLength="1" d="M 573 346 L 572 347 L 542 347 L 542 349 L 662 349 L 662 347 L 660 346 L 584 346 L 583 347 L 574 346"/>
    <path pathLength="1" d="M 542 760 L 542 763 L 662 763 L 662 761 L 543 760"/>
    <path pathLength="1" d="M 542 717 L 542 720 L 662 720 L 662 718 L 543 717"/>
    <path pathLength="1" d="M 542 695 L 542 698 L 662 698 L 662 696 L 576 696 L 575 695 L 543 695"/>
    <path pathLength="1" d="M 542 630 L 542 633 L 662 633 L 662 631 L 660 630 L 543 630"/>
    <path pathLength="1" d="M 670 565 L 670 567 L 691 567 L 692 568 L 790 568 L 790 565 L 671 565"/>
    <path pathLength="1" d="M 670 457 L 670 459 L 790 459 L 791 457 L 671 457"/>
    <path pathLength="1" d="M 670 391 L 670 393 L 790 393 L 791 391 L 671 391"/>
    <path pathLength="1" d="M 677 608 L 676 609 L 670 609 L 670 611 L 773 611 L 774 612 L 789 612 L 790 611 L 790 609 L 678 609"/>
    <path pathLength="1" d="M 542 500 L 542 502 L 600 502 L 601 503 L 602 502 L 606 502 L 607 503 L 660 503 L 662 502 L 661 500 L 543 500"/>
    <path pathLength="1" d="M 542 782 L 542 784 L 662 785 L 662 783 L 629 783 L 628 782 L 543 782"/>
    <path pathLength="1" d="M 670 696 L 670 698 L 672 699 L 790 699 L 790 697 L 671 696"/>
    <path pathLength="1" d="M 670 653 L 670 655 L 783 655 L 784 656 L 788 656 L 790 655 L 790 653 L 671 653"/>
    <path pathLength="1" d="M 670 631 L 670 633 L 765 633 L 766 634 L 788 634 L 790 633 L 790 631 L 671 631"/>
    <path pathLength="1" d="M 543 586 L 542 589 L 662 589 L 662 587 L 544 586"/>
    <path pathLength="1" d="M 670 500 L 670 502 L 672 503 L 790 503 L 789 500 L 671 500"/>
    <path pathLength="1" d="M 670 478 L 670 480 L 672 481 L 790 481 L 790 479 L 788 478 L 671 478"/>
    <path pathLength="1" d="M 672 368 L 670 369 L 671 371 L 790 371 L 790 368 L 673 368"/>
    <path pathLength="1" d="M 544 368 L 542 369 L 542 371 L 662 371 L 662 369 L 660 368 L 545 368"/>
    <path pathLength="1" d="M 674 279 L 673 280 L 670 280 L 670 282 L 790 282 L 789 279 L 675 279"/>
    <path pathLength="1" d="M 671 674 L 670 675 L 671 677 L 790 677 L 790 675 L 706 675 L 705 674 L 672 674"/>
    <path pathLength="1" d="M 542 608 L 542 610 L 544 611 L 661 611 L 662 609 L 659 608 L 543 608"/>
    <path pathLength="1" d="M 670 587 L 670 589 L 698 589 L 699 590 L 789 590 L 790 589 L 789 587 L 671 587"/>
    <path pathLength="1" d="M 542 543 L 542 545 L 564 545 L 565 546 L 567 545 L 570 545 L 571 546 L 661 546 L 661 543 L 543 543"/>
    <path pathLength="1" d="M 542 478 L 542 480 L 544 481 L 660 481 L 662 480 L 661 478 L 543 478"/>
    <path pathLength="1" d="M 671 346 L 670 347 L 671 349 L 789 349 L 790 348 L 790 346 L 672 346"/>
    <path pathLength="1" d="M 542 522 L 542 524 L 662 524 L 662 522 L 543 522"/>
    <path pathLength="1" d="M 670 302 L 670 304 L 790 304 L 790 302 L 671 302"/>
    <path pathLength="1" d="M 542 631 L 543 630 L 660 630 L 661 631 L 660 633 L 543 633 L 542 632"/>
    <path pathLength="1" d="M 671 501 L 672 500 L 789 500 L 790 501 L 789 503 L 672 503 L 671 502"/>
    <path pathLength="1" d="M 671 369 L 672 368 L 789 368 L 790 369 L 789 371 L 672 371 L 671 370"/>
    <path pathLength="1" d="M 671 347 L 672 346 L 789 346 L 790 347 L 789 349 L 672 349 L 671 348"/>
    <path pathLength="1" d="M 671 479 L 672 478 L 788 478 L 789 479 L 788 481 L 672 481 L 671 480"/>
    <path pathLength="1" d="M 543 479 L 544 478 L 660 478 L 661 479 L 660 481 L 544 481 L 543 480"/>
    <path pathLength="1" d="M 543 369 L 544 368 L 660 368 L 661 369 L 660 371 L 544 371 L 543 370"/>
    <path pathLength="1" d="M 543 609 L 544 608 L 659 608 L 660 609 L 659 611 L 544 611 L 543 610"/>
    <path pathLength="1" d="M 435 803 L 434 804 L 371 805 L 371 807 L 413 807 L 414 806 L 465 806 L 466 805 L 486 805 L 486 803 L 436 803"/>
    <path pathLength="1" d="M 445 695 L 444 696 L 390 696 L 389 697 L 371 697 L 371 699 L 406 699 L 407 698 L 477 698 L 478 697 L 486 697 L 486 695 L 446 695"/>
    <path pathLength="1" d="M 393 674 L 392 675 L 371 675 L 371 677 L 486 676 L 486 674 L 394 674"/>
    <path pathLength="1" d="M 416 652 L 415 653 L 371 653 L 371 655 L 486 654 L 486 652 L 417 652"/>
    <path pathLength="1" d="M 416 630 L 415 631 L 372 631 L 371 633 L 472 633 L 473 632 L 486 632 L 486 630 L 417 630"/>
    <path pathLength="1" d="M 420 608 L 419 609 L 372 609 L 372 611 L 373 612 L 378 612 L 379 611 L 466 611 L 467 610 L 486 610 L 486 608 L 421 608"/>
    <path pathLength="1" d="M 374 300 L 372 301 L 372 303 L 486 304 L 486 302 L 481 302 L 480 301 L 379 301 L 378 300 L 375 300"/>
    <path pathLength="1" d="M 675 280 L 676 279 L 789 279 L 790 280 L 789 282 L 676 282 L 675 281"/>
    <path pathLength="1" d="M 372 434 L 372 437 L 486 437 L 486 435 L 484 434 L 373 434"/>
    <path pathLength="1" d="M 439 586 L 438 587 L 372 587 L 372 589 L 373 590 L 409 590 L 410 589 L 484 589 L 486 588 L 485 586 L 440 586"/>
    <path pathLength="1" d="M 372 478 L 372 480 L 375 481 L 397 481 L 398 480 L 486 480 L 486 478 L 373 478"/>
    <path pathLength="1" d="M 372 390 L 372 392 L 376 392 L 377 393 L 486 393 L 486 391 L 483 390 L 373 390"/>
    <path pathLength="1" d="M 371 368 L 371 370 L 418 370 L 419 371 L 484 371 L 485 370 L 485 368 L 372 368"/>
    <path pathLength="1" d="M 373 345 L 372 348 L 486 348 L 486 346 L 391 346 L 390 345 L 374 345"/>
    <path pathLength="1" d="M 372 323 L 372 325 L 383 325 L 384 326 L 486 326 L 486 324 L 373 323"/>
    <path pathLength="1" d="M 372 456 L 373 459 L 484 459 L 486 458 L 485 456 L 373 456"/>
    <path pathLength="1" d="M 372 278 L 372 280 L 379 280 L 380 281 L 467 281 L 468 282 L 485 282 L 485 279 L 406 279 L 405 278 L 373 278"/>
    <path pathLength="1" d="M 373 412 L 372 413 L 373 415 L 485 415 L 486 413 L 483 412 L 374 412"/>
    <path pathLength="1" d="M 821 301 L 820 302 L 798 302 L 798 304 L 910 304 L 911 302 L 909 301 L 831 301 L 830 302 L 828 301 L 827 302 L 822 302"/>
    <path pathLength="1" d="M 801 805 L 798 806 L 799 808 L 911 809 L 911 807 L 882 807 L 881 806 L 808 806 L 807 805 L 802 805"/>
    <path pathLength="1" d="M 799 675 L 798 677 L 801 677 L 802 678 L 803 677 L 806 678 L 911 678 L 911 676 L 874 676 L 873 675 L 800 675"/>
    <path pathLength="1" d="M 798 784 L 798 786 L 829 786 L 830 787 L 911 787 L 911 785 L 799 784"/>
    <path pathLength="1" d="M 798 719 L 798 721 L 830 721 L 831 722 L 911 722 L 911 720 L 890 720 L 889 719 L 799 719"/>
    <path pathLength="1" d="M 799 697 L 798 699 L 801 700 L 911 700 L 911 698 L 800 697"/>
    <path pathLength="1" d="M 799 631 L 798 633 L 800 634 L 911 634 L 911 632 L 800 631"/>
    <path pathLength="1" d="M 800 500 L 798 501 L 799 503 L 911 503 L 911 501 L 890 501 L 889 500 L 801 500"/>
    <path pathLength="1" d="M 798 544 L 798 546 L 911 546 L 911 544 L 799 544"/>
    <path pathLength="1" d="M 798 457 L 798 459 L 911 459 L 911 457 L 799 457"/>
    <path pathLength="1" d="M 798 435 L 798 437 L 911 437 L 911 435 L 799 435"/>
    <path pathLength="1" d="M 798 413 L 798 415 L 911 415 L 911 413 L 799 413"/>
    <path pathLength="1" d="M 798 391 L 798 393 L 911 393 L 911 391 L 799 391"/>
    <path pathLength="1" d="M 798 324 L 798 326 L 911 326 L 911 324 L 799 324"/>
    <path pathLength="1" d="M 801 740 L 799 741 L 799 743 L 911 744 L 911 742 L 903 742 L 902 741 L 806 741 L 805 740 L 802 740"/>
    <path pathLength="1" d="M 372 457 L 373 456 L 484 456 L 485 457 L 484 459 L 373 459 L 372 458"/>
    <path pathLength="1" d="M 372 435 L 373 434 L 484 434 L 485 435 L 484 437 L 373 437 L 372 436"/>
    <path pathLength="1" d="M 799 279 L 800 282 L 870 282 L 871 281 L 878 282 L 879 281 L 911 281 L 911 279 L 800 279"/>
    <path pathLength="1" d="M 799 609 L 799 612 L 911 612 L 911 610 L 800 609"/>
    <path pathLength="1" d="M 799 587 L 799 590 L 911 590 L 911 588 L 800 587"/>
    <path pathLength="1" d="M 146 185 L 145 187 L 125 187 L 124 192 L 134 192 L 139 196 L 138 198 L 130 198 L 129 196 L 127 196 L 126 197 L 127 198 L 126 205 L 128 205 L 130 203 L 144 203 L 146 201 L 148 201 L 152 204 L 153 203 L 156 204 L 160 202 L 161 203 L 169 203 L 170 204 L 173 203 L 175 204 L 180 203 L 181 204 L 185 204 L 188 206 L 191 205 L 190 204 L 190 198 L 182 198 L 181 197 L 178 197 L 177 198 L 156 198 L 154 196 L 152 196 L 149 199 L 146 199 L 144 196 L 147 193 L 152 193 L 154 191 L 156 191 L 156 189 L 154 189 L 152 187 L 149 187 L 148 185 L 147 185"/>
    <path pathLength="1" d="M 799 762 L 800 765 L 891 765 L 892 766 L 909 766 L 911 765 L 910 763 L 833 763 L 832 762 L 800 762"/>
    <path pathLength="1" d="M 799 653 L 800 656 L 911 656 L 911 654 L 835 654 L 834 653 L 800 653"/>
    <path pathLength="1" d="M 800 565 L 799 568 L 911 568 L 911 566 L 801 565"/>
    <path pathLength="1" d="M 800 478 L 799 481 L 911 481 L 911 479 L 837 479 L 836 478 L 801 478"/>
    <path pathLength="1" d="M 799 346 L 800 349 L 877 349 L 878 348 L 911 348 L 910 346 L 800 346"/>
    <path pathLength="1" d="M 372 413 L 373 412 L 483 412 L 484 413 L 483 415 L 373 415 L 372 414"/>
    <path pathLength="1" d="M 800 368 L 799 371 L 910 371 L 909 368 L 801 368"/>
    <path pathLength="1" d="M 799 369 L 800 368 L 909 368 L 910 369 L 909 371 L 800 371 L 799 370"/>
    <path pathLength="1" d="M 134 247 L 133 248 L 130 248 L 129 249 L 130 251 L 173 251 L 175 253 L 177 253 L 179 251 L 185 251 L 185 249 L 188 248 L 189 251 L 191 252 L 193 251 L 197 251 L 198 249 L 199 249 L 200 251 L 203 251 L 207 253 L 210 251 L 212 252 L 226 252 L 226 248 L 224 247 L 222 248 L 219 247 L 218 248 L 215 248 L 214 247 L 211 248 L 200 248 L 199 247 L 198 248 L 176 248 L 175 247 L 172 248 L 169 248 L 168 247 L 162 247 L 161 248 L 156 248 L 155 247 L 152 248 L 146 248 L 144 247 L 142 248 L 141 247 L 135 247"/>
    <path pathLength="1" d="M 945 163 L 945 166 L 946 167 L 946 172 L 945 173 L 945 178 L 946 179 L 945 182 L 945 185 L 946 186 L 946 189 L 945 190 L 945 193 L 946 194 L 945 197 L 945 205 L 946 206 L 946 209 L 945 210 L 946 211 L 946 219 L 945 220 L 945 232 L 946 233 L 945 235 L 945 241 L 946 242 L 946 260 L 945 263 L 946 265 L 945 263 L 946 260 L 946 242 L 945 241 L 945 237 L 946 236 L 946 233 L 945 232 L 945 220 L 946 219 L 946 206 L 945 205 L 945 197 L 946 196 L 945 193 L 945 190 L 946 189 L 945 182 L 946 179 L 945 178 L 945 173 L 946 172 L 946 167 L 945 164"/>
    <path pathLength="1" d="M 379 391 L 380 390 L 483 390 L 484 391 L 483 393 L 380 393 L 379 392"/>
    <path pathLength="1" d="M 691 566 L 692 565 L 789 565 L 790 566 L 789 568 L 692 568 L 691 567"/>
    <path pathLength="1" d="M 307 186 L 305 191 L 299 189 L 290 189 L 289 188 L 286 189 L 285 188 L 281 188 L 279 189 L 279 194 L 281 193 L 289 194 L 290 196 L 292 196 L 293 198 L 292 199 L 284 199 L 283 198 L 280 199 L 270 199 L 266 202 L 267 204 L 271 204 L 272 205 L 275 204 L 280 204 L 281 205 L 282 204 L 294 205 L 297 204 L 297 198 L 294 198 L 293 197 L 295 194 L 299 194 L 305 192 L 306 194 L 311 194 L 313 193 L 314 194 L 321 194 L 322 196 L 325 196 L 326 195 L 326 190 L 319 189 L 318 187 L 316 187 L 315 189 L 311 189 L 309 186 L 308 186"/>
    <path pathLength="1" d="M 570 544 L 571 543 L 660 543 L 661 544 L 660 546 L 571 546 L 570 545"/>
    <path pathLength="1" d="M 799 501 L 800 500 L 889 500 L 890 501 L 889 503 L 800 503 L 799 502"/>
    <path pathLength="1" d="M 124 277 L 125 276 L 210 276 L 211 277 L 210 279 L 125 279 L 124 278"/>
    <path pathLength="1" d="M 704 588 L 705 587 L 789 587 L 790 588 L 789 590 L 705 590 L 704 589"/>
    <path pathLength="1" d="M 142 390 L 143 389 L 227 389 L 228 390 L 227 392 L 143 392 L 142 391"/>
    <path pathLength="1" d="M 866 209 L 863 211 L 859 211 L 858 210 L 847 211 L 846 212 L 844 211 L 836 211 L 835 212 L 835 217 L 839 217 L 840 216 L 842 217 L 855 217 L 856 216 L 859 217 L 865 217 L 869 215 L 872 215 L 873 216 L 882 216 L 883 217 L 886 217 L 887 216 L 889 217 L 895 217 L 896 216 L 905 217 L 905 213 L 904 211 L 899 211 L 898 209 L 896 209 L 895 211 L 886 211 L 885 209 L 884 209 L 882 212 L 881 212 L 880 210 L 879 211 L 874 211 L 872 215 L 869 215 L 868 214 L 867 209"/>
    <path pathLength="1" d="M 861 198 L 859 201 L 856 200 L 848 200 L 847 201 L 836 200 L 834 204 L 835 206 L 839 206 L 840 205 L 842 206 L 845 206 L 846 205 L 848 206 L 862 206 L 866 204 L 869 204 L 870 205 L 878 205 L 879 206 L 885 206 L 886 205 L 899 206 L 900 205 L 903 205 L 903 201 L 901 199 L 890 200 L 889 201 L 886 201 L 884 199 L 880 199 L 879 200 L 876 199 L 875 200 L 871 200 L 869 204 L 868 204 L 867 202 L 864 201 L 862 202 L 861 200 L 863 199 L 862 199"/>
    <path pathLength="1" d="M 510 726 L 511 725 L 513 726 L 513 805 L 512 806 L 510 805 L 510 727"/>
    <path pathLength="1" d="M 387 521 L 384 525 L 385 527 L 387 528 L 388 527 L 390 528 L 393 528 L 394 527 L 402 527 L 403 528 L 405 527 L 410 527 L 413 528 L 418 526 L 422 526 L 426 528 L 427 527 L 444 527 L 445 529 L 448 530 L 451 527 L 453 527 L 453 523 L 452 522 L 440 522 L 439 521 L 438 522 L 429 522 L 428 521 L 425 521 L 423 523 L 420 523 L 421 525 L 418 526 L 417 525 L 417 522 L 411 522 L 408 521 L 407 522 L 402 522 L 400 523 L 399 522 L 390 522 L 388 521"/>
    <path pathLength="1" d="M 830 302 L 831 301 L 909 301 L 910 302 L 909 304 L 831 304 L 830 303"/>
    <path pathLength="1" d="M 150 479 L 151 478 L 227 478 L 228 479 L 227 481 L 151 481 L 150 480"/>
    <path pathLength="1" d="M 583 347 L 584 346 L 660 346 L 661 347 L 660 349 L 584 349 L 583 348"/>
    <path pathLength="1" d="M 246 368 L 247 367 L 322 367 L 323 368 L 322 370 L 247 370 L 246 369"/>
    <path pathLength="1" d="M 799 347 L 800 346 L 874 346 L 875 347 L 874 349 L 800 349 L 799 348"/>
    <path pathLength="1" d="M 799 566 L 800 565 L 871 565 L 872 566 L 871 568 L 800 568 L 799 567"/>
    <path pathLength="1" d="M 883 187 L 881 190 L 878 189 L 877 190 L 875 189 L 873 190 L 869 188 L 867 188 L 865 190 L 854 190 L 853 191 L 850 191 L 849 188 L 846 188 L 845 190 L 837 189 L 835 190 L 835 195 L 846 195 L 849 194 L 848 192 L 850 191 L 851 193 L 860 194 L 861 195 L 868 195 L 869 194 L 871 195 L 873 194 L 874 195 L 886 195 L 888 197 L 891 197 L 892 196 L 893 190 L 889 190 L 886 189 L 885 187 L 884 187"/>
    <path pathLength="1" d="M 799 280 L 800 279 L 870 279 L 871 280 L 870 282 L 800 282 L 799 281"/>
    <path pathLength="1" d="M 805 676 L 806 675 L 873 675 L 874 676 L 873 678 L 806 678 L 805 677"/>
    <path pathLength="1" d="M 104 322 L 105 321 L 172 321 L 173 322 L 172 324 L 105 324 L 104 323"/>
    <path pathLength="1" d="M 582 235 L 580 237 L 574 237 L 573 236 L 571 237 L 563 237 L 562 236 L 559 237 L 556 237 L 555 236 L 554 237 L 551 236 L 547 237 L 546 236 L 544 237 L 544 239 L 550 241 L 552 240 L 607 240 L 607 236 L 604 236 L 603 237 L 598 237 L 597 236 L 596 237 L 593 237 L 592 236 L 587 237 L 586 236 L 583 236"/>
    <path pathLength="1" d="M 241 255 L 242 254 L 307 254 L 308 255 L 307 257 L 242 257 L 241 256"/>
    <path pathLength="1" d="M 729 210 L 727 212 L 723 212 L 722 211 L 719 211 L 718 212 L 706 212 L 705 215 L 706 217 L 714 217 L 715 218 L 716 217 L 730 218 L 733 216 L 736 216 L 737 217 L 753 217 L 754 218 L 761 218 L 762 217 L 761 212 L 751 211 L 750 212 L 738 212 L 737 213 L 733 213 L 732 210 L 730 210"/>
    <path pathLength="1" d="M 800 698 L 801 697 L 862 697 L 863 698 L 862 700 L 801 700 L 800 699"/>
    <path pathLength="1" d="M 543 804 L 544 803 L 604 803 L 605 804 L 604 806 L 544 806 L 543 805"/>
    <path pathLength="1" d="M 104 412 L 105 411 L 165 411 L 166 412 L 165 414 L 105 414 L 104 413"/>
    <path pathLength="1" d="M 105 568 L 106 567 L 165 567 L 166 568 L 165 570 L 106 570 L 105 569"/>
    <path pathLength="1" d="M 424 369 L 425 368 L 484 368 L 485 369 L 484 371 L 425 371 L 424 370"/>
    <path pathLength="1" d="M 430 703 L 429 704 L 425 704 L 423 706 L 408 706 L 408 710 L 415 710 L 417 712 L 419 712 L 421 709 L 424 709 L 425 710 L 432 710 L 433 709 L 437 710 L 439 709 L 440 710 L 444 710 L 446 712 L 450 712 L 458 709 L 458 706 L 457 705 L 446 705 L 445 706 L 438 705 L 436 706 L 435 709 L 433 709 L 432 708 L 432 703 L 431 703"/>
    <path pathLength="1" d="M 830 720 L 831 719 L 889 719 L 890 720 L 889 722 L 831 722 L 830 721"/>
    <path pathLength="1" d="M 684 719 L 685 718 L 743 718 L 744 719 L 743 721 L 685 721 L 684 720"/>
    <path pathLength="1" d="M 302 413 L 303 412 L 361 412 L 362 413 L 361 415 L 303 415 L 302 414"/>
    <path pathLength="1" d="M 408 210 L 407 211 L 401 211 L 401 215 L 405 217 L 407 216 L 409 217 L 423 217 L 424 215 L 429 215 L 430 217 L 453 217 L 453 212 L 450 212 L 447 210 L 445 212 L 440 212 L 438 210 L 434 210 L 433 211 L 429 211 L 428 213 L 424 213 L 422 211 L 411 211 L 409 210"/>
    <path pathLength="1" d="M 598 653 L 599 652 L 656 652 L 657 653 L 656 655 L 599 655 L 598 654"/>
    <path pathLength="1" d="M 542 587 L 543 586 L 600 586 L 601 587 L 600 589 L 543 589 L 542 588"/>
    <path pathLength="1" d="M 415 631 L 416 630 L 472 630 L 473 631 L 472 633 L 416 633 L 415 632"/>
    <path pathLength="1" d="M 170 345 L 171 344 L 227 344 L 228 345 L 227 347 L 171 347 L 170 346"/>
    <path pathLength="1" d="M 383 324 L 384 323 L 439 323 L 440 324 L 439 326 L 384 326 L 383 325"/>
    <path pathLength="1" d="M 606 501 L 607 500 L 660 500 L 661 501 L 660 503 L 607 503 L 606 502"/>
    <path pathLength="1" d="M 608 740 L 609 739 L 660 739 L 661 740 L 660 742 L 609 742 L 608 741"/>
    <path pathLength="1" d="M 578 211 L 578 218 L 590 218 L 593 219 L 603 216 L 604 218 L 617 218 L 618 219 L 621 219 L 622 218 L 621 213 L 607 213 L 605 211 L 603 212 L 602 214 L 599 214 L 598 212 L 594 212 L 593 213 L 581 213 L 580 211 L 579 211"/>
    <path pathLength="1" d="M 799 588 L 800 587 L 850 587 L 851 588 L 850 590 L 800 590 L 799 589"/>
    <path pathLength="1" d="M 542 761 L 543 760 L 592 760 L 593 761 L 592 763 L 543 763 L 542 762"/>
    <path pathLength="1" d="M 739 741 L 740 740 L 789 740 L 790 741 L 789 743 L 740 743 L 739 742"/>
    <path pathLength="1" d="M 238 523 L 239 522 L 287 522 L 288 523 L 287 525 L 239 525 L 238 524"/>
    <path pathLength="1" d="M 612 675 L 613 674 L 660 674 L 661 675 L 660 677 L 613 677 L 612 676"/>
    <path pathLength="1" d="M 671 697 L 672 696 L 718 696 L 719 697 L 718 699 L 672 699 L 671 698"/>
    <path pathLength="1" d="M 419 609 L 420 608 L 466 608 L 467 609 L 466 611 L 420 611 L 419 610"/>
    <path pathLength="1" d="M 799 632 L 800 631 L 845 631 L 846 632 L 845 634 L 800 634 L 799 633"/>
    <path pathLength="1" d="M 438 587 L 439 586 L 484 586 L 485 587 L 484 589 L 439 589 L 438 588"/>
    <path pathLength="1" d="M 104 546 L 105 545 L 150 545 L 151 546 L 150 548 L 105 548 L 104 547"/>
    <path pathLength="1" d="M 671 544 L 672 543 L 717 543 L 718 544 L 717 546 L 672 546 L 671 545"/>
    <path pathLength="1" d="M 671 325 L 672 324 L 717 324 L 718 325 L 717 327 L 672 327 L 671 326"/>
    <path pathLength="1" d="M 238 545 L 239 544 L 283 544 L 284 545 L 283 547 L 239 547 L 238 546"/>
    <path pathLength="1" d="M 436 302 L 437 301 L 480 301 L 481 302 L 480 304 L 437 304 L 436 303"/>
    <path pathLength="1" d="M 547 188 L 544 189 L 544 191 L 549 191 L 551 193 L 551 196 L 548 199 L 545 199 L 545 201 L 546 202 L 550 202 L 552 204 L 552 208 L 549 211 L 544 211 L 543 213 L 544 214 L 550 214 L 555 210 L 555 203 L 553 200 L 554 198 L 554 191 L 552 189 L 548 188"/>
    <path pathLength="1" d="M 542 718 L 543 717 L 585 717 L 586 718 L 585 720 L 543 720 L 542 719"/>
    <path pathLength="1" d="M 247 611 L 248 610 L 290 610 L 291 611 L 290 613 L 248 613 L 247 612"/>
    <path pathLength="1" d="M 803 187 L 801 188 L 801 199 L 806 200 L 809 203 L 809 206 L 805 210 L 800 210 L 801 212 L 808 212 L 811 209 L 812 202 L 809 198 L 804 196 L 804 191 L 805 190 L 810 190 L 810 187 L 804 187"/>
    <path pathLength="1" d="M 799 610 L 800 609 L 841 609 L 842 610 L 841 612 L 800 612 L 799 611"/>
    <path pathLength="1" d="M 319 301 L 320 300 L 361 300 L 362 301 L 361 303 L 320 303 L 319 302"/>
    <path pathLength="1" d="M 829 785 L 830 784 L 870 784 L 871 785 L 870 787 L 830 787 L 829 786"/>
    <path pathLength="1" d="M 134 590 L 135 589 L 175 589 L 176 590 L 175 592 L 135 592 L 134 591"/>
    <path pathLength="1" d="M 264 323 L 265 322 L 305 322 L 306 323 L 305 325 L 265 325 L 264 324"/>
    <path pathLength="1" d="M 463 734 L 464 733 L 475 733 L 477 737 L 476 739 L 465 739 L 476 739 L 478 738 L 481 740 L 481 742 L 480 743 L 476 743 L 475 742 L 459 743 L 458 740 L 459 739 L 462 739 L 463 738 L 463 735"/>
    <path pathLength="1" d="M 176 656 L 177 655 L 216 655 L 217 656 L 216 658 L 177 658 L 176 657"/>
    <path pathLength="1" d="M 876 212 L 877 211 L 880 211 L 881 212 L 889 211 L 890 214 L 892 214 L 892 212 L 894 211 L 895 214 L 896 211 L 903 211 L 905 214 L 904 215 L 900 214 L 899 216 L 896 216 L 895 217 L 889 217 L 888 216 L 883 217 L 882 216 L 874 216 L 873 213 L 874 212 L 876 213"/>
    <path pathLength="1" d="M 382 735 L 383 734 L 393 734 L 394 735 L 394 739 L 397 739 L 397 735 L 398 734 L 410 734 L 411 735 L 411 739 L 408 741 L 398 741 L 397 744 L 393 744 L 392 743 L 393 741 L 383 741 L 381 739 L 381 736"/>
    <path pathLength="1" d="M 220 185 L 217 186 L 215 188 L 213 193 L 213 205 L 214 208 L 216 210 L 223 210 L 226 207 L 226 204 L 227 203 L 225 196 L 223 195 L 217 195 L 216 194 L 216 192 L 219 189 L 225 187 L 225 185 L 221 185"/>
    <path pathLength="1" d="M 392 675 L 393 674 L 431 674 L 432 675 L 431 677 L 393 677 L 392 676"/>
    <path pathLength="1" d="M 264 655 L 265 654 L 303 654 L 304 655 L 303 657 L 265 657 L 264 656"/>
    <path pathLength="1" d="M 239 589 L 240 588 L 277 588 L 278 589 L 277 591 L 240 591 L 239 590"/>
    <path pathLength="1" d="M 304 209 L 302 210 L 308 212 L 309 214 L 308 215 L 304 213 L 302 214 L 301 212 L 302 215 L 307 215 L 308 216 L 311 216 L 312 215 L 326 216 L 326 210 L 307 210 L 305 209"/>
    <path pathLength="1" d="M 372 588 L 373 587 L 409 587 L 410 588 L 409 590 L 373 590 L 372 589"/>
    <path pathLength="1" d="M 799 479 L 800 478 L 836 478 L 837 479 L 836 481 L 800 481 L 799 480"/>
    <path pathLength="1" d="M 274 278 L 275 277 L 311 277 L 312 278 L 311 280 L 275 280 L 274 279"/>
    <path pathLength="1" d="M 159 186 L 159 193 L 171 193 L 174 192 L 175 193 L 185 193 L 186 195 L 189 195 L 190 193 L 190 189 L 182 186 L 179 187 L 172 187 L 171 188 L 166 188 L 164 186 L 160 186"/>
    <path pathLength="1" d="M 475 499 L 472 502 L 472 510 L 474 513 L 480 513 L 481 514 L 481 516 L 477 520 L 473 520 L 473 522 L 477 523 L 480 522 L 484 517 L 485 506 L 484 505 L 484 502 L 481 499 L 476 499"/>
    <path pathLength="1" d="M 714 784 L 715 783 L 750 783 L 751 784 L 750 786 L 715 786 L 714 785"/>
    <path pathLength="1" d="M 592 783 L 593 782 L 628 782 L 629 783 L 628 785 L 593 785 L 592 784"/>
    <path pathLength="1" d="M 176 678 L 177 677 L 212 677 L 213 678 L 212 680 L 177 680 L 176 679"/>
    <path pathLength="1" d="M 314 676 L 315 675 L 350 675 L 351 676 L 350 678 L 315 678 L 314 677"/>
  </g>
</svg>