<svg xmlns="http://www.w3.org/2000/svg" viewBox="0 0 1000 1000" width="1000" height="1000" role="img" aria-label="Outline taccuino-pagine-bianche">
  <g fill="none" stroke="#111" stroke-width="1.43" stroke-linecap="round" stroke-linejoin="round">
    <path pathLength="1" d="M 146 291 L 129 309 L 129 540 L 135 552 L 129 564 L 129 820 L 137 833 L 516 837 L 520 916 L 531 909 L 545 913 L 546 837 L 915 837 L 931 828 L 934 308 L 928 296 L 557 291 L 531 300 L 505 291 L 147 291"/>
    <path pathLength="1" d="M 145 292 L 505 291 L 530 300 L 557 291 L 927 296 L 934 308 L 931 827 L 915 837 L 545 837 L 543 915 L 532 909 L 518 914 L 517 837 L 138 833 L 129 820 L 129 564 L 135 554 L 129 540 L 129 309 L 144 292"/>
    <path pathLength="1" d="M 566 299 L 540 304 L 533 315 L 534 822 L 546 828 L 901 826 L 906 818 L 905 306 L 891 299 L 567 299"/>
    <path pathLength="1" d="M 565 300 L 891 299 L 905 307 L 906 818 L 900 826 L 546 828 L 534 821 L 533 315 L 543 303 L 564 300"/>
    <path pathLength="1" d="M 173 299 L 158 307 L 159 823 L 169 828 L 525 826 L 529 822 L 528 309 L 498 299 L 174 299"/>
    <path pathLength="1" d="M 172 300 L 498 299 L 517 302 L 528 310 L 529 821 L 524 826 L 169 828 L 159 822 L 158 307 L 171 300"/>
    <path pathLength="1" d="M 905 299 L 910 310 L 910 818 L 905 828 L 913 828 L 921 822 L 921 306 L 915 300 L 906 299"/>
    <path pathLength="1" d="M 157 299 L 147 301 L 142 307 L 142 821 L 151 828 L 159 828 L 154 821 L 154 307 L 158 299"/>
    <path pathLength="1" d="M 907 301 L 914 300 L 921 307 L 921 821 L 913 828 L 906 827 L 910 818 L 910 310 L 907 302"/>
    <path pathLength="1" d="M 149 301 L 157 301 L 154 307 L 154 821 L 156 828 L 148 827 L 142 821 L 142 307 L 148 301"/>
  </g>
</svg>