<svg xmlns="http://www.w3.org/2000/svg" viewBox="0 0 1000 1000" width="1000" height="1000" role="img" aria-label="Outline taccuino-puntini">
  <g fill="none" stroke="#111" stroke-width="1.43" stroke-linecap="round" stroke-linejoin="round">
    <path pathLength="1" d="M 108 200 L 467 199 L 493 210 L 525 199 L 898 204 L 908 218 L 908 429 L 900 440 L 908 454 L 906 706 L 887 719 L 511 719 L 509 798 L 495 791 L 479 797 L 478 719 L 92 715 L 81 696 L 81 457 L 89 443 L 81 427 L 81 223 L 91 204 L 107 200"/>
    <path pathLength="1" d="M 109 199 L 90 204 L 81 223 L 81 427 L 88 441 L 81 457 L 81 696 L 91 715 L 477 719 L 479 798 L 494 791 L 510 798 L 512 719 L 887 719 L 906 707 L 908 454 L 901 440 L 908 429 L 908 218 L 899 204 L 525 199 L 494 210 L 467 199 L 110 199"/>
    <path pathLength="1" d="M 108 209 L 94 220 L 96 704 L 113 711 L 485 706 L 490 226 L 482 213 L 468 209 L 127 209 L 114 215 L 115 707 L 110 706 L 106 222 L 115 211 L 109 209"/>
    <path pathLength="1" d="M 126 210 L 468 209 L 488 220 L 490 696 L 484 706 L 444 711 L 122 710 L 114 704 L 111 224 L 114 216 L 125 210"/>
    <path pathLength="1" d="M 520 209 L 506 214 L 498 231 L 498 694 L 502 705 L 512 710 L 870 708 L 877 694 L 875 217 L 860 209 L 521 209"/>
    <path pathLength="1" d="M 519 210 L 860 209 L 875 218 L 877 694 L 869 708 L 512 710 L 502 704 L 498 694 L 498 231 L 501 220 L 518 210"/>
    <path pathLength="1" d="M 874 209 L 882 222 L 882 698 L 875 710 L 888 708 L 894 698 L 894 220 L 887 211 L 875 209"/>
    <path pathLength="1" d="M 107 210 L 113 210 L 106 222 L 106 698 L 111 710 L 103 709 L 94 699 L 94 221 L 99 213 L 106 210"/>
    <path pathLength="1" d="M 876 210 L 886 211 L 894 220 L 894 698 L 887 708 L 881 710 L 877 708 L 882 698 L 882 222 L 876 211"/>
    <path pathLength="1" d="M 814 435 L 813 438 L 813 437 L 816 435 L 818 438 L 815 439 L 819 439 L 818 436 L 815 435"/>
    <path pathLength="1" d="M 788 481 L 787 484 L 792 484 L 789 484 L 788 482 L 789 481 L 792 481 L 789 481"/>
    <path pathLength="1" d="M 219 390 L 222 390 L 223 392 L 222 393 L 219 393 L 223 394 L 223 390 L 220 390"/>
    <path pathLength="1" d="M 710 250 L 708 251 L 708 254 L 711 255 L 713 254 L 714 252 L 713 250 L 711 250"/>
  </g>
</svg>