<svg xmlns="http://www.w3.org/2000/svg" viewBox="0 0 1000 1000" width="1000" height="1000" role="img" aria-label="Outline taccuino-righe">
  <g fill="none" stroke="#111" stroke-width="1.43" stroke-linecap="round" stroke-linejoin="round">
    <path pathLength="1" d="M 106 200 L 469 199 L 492 209 L 520 199 L 898 204 L 908 216 L 908 423 L 898 433 L 908 441 L 907 704 L 890 717 L 511 717 L 508 797 L 496 790 L 479 796 L 477 717 L 91 714 L 80 696 L 80 444 L 89 433 L 80 421 L 80 221 L 88 205 L 105 200"/>
    <path pathLength="1" d="M 107 199 L 87 205 L 80 221 L 80 421 L 87 431 L 80 444 L 80 696 L 90 714 L 477 717 L 479 797 L 495 790 L 507 798 L 511 717 L 890 717 L 907 705 L 908 441 L 901 432 L 908 424 L 908 216 L 899 204 L 520 199 L 493 209 L 469 199 L 108 199"/>
    <path pathLength="1" d="M 122 208 L 109 219 L 111 702 L 123 708 L 474 708 L 486 704 L 490 698 L 487 216 L 467 208 L 123 208"/>
    <path pathLength="1" d="M 518 208 L 504 212 L 497 222 L 500 703 L 514 708 L 871 706 L 877 698 L 875 214 L 865 208 L 519 208"/>
    <path pathLength="1" d="M 121 209 L 467 208 L 487 217 L 490 698 L 485 704 L 474 708 L 123 708 L 111 701 L 109 219 L 120 209"/>
    <path pathLength="1" d="M 517 209 L 865 208 L 875 215 L 877 698 L 870 706 L 514 708 L 500 702 L 497 222 L 505 212 L 516 209"/>
    <path pathLength="1" d="M 107 208 L 99 210 L 93 217 L 93 698 L 97 705 L 111 708 L 104 698 L 104 219 L 110 210 L 108 208"/>
    <path pathLength="1" d="M 878 209 L 882 216 L 882 700 L 876 707 L 881 708 L 890 705 L 895 698 L 895 219 L 888 210 L 879 209"/>
    <path pathLength="1" d="M 106 209 L 109 209 L 104 219 L 104 698 L 107 708 L 98 705 L 93 698 L 93 217 L 97 212 L 105 209"/>
    <path pathLength="1" d="M 879 210 L 887 210 L 895 219 L 895 698 L 889 705 L 881 708 L 878 707 L 882 700 L 882 215 L 879 211"/>
    <path pathLength="1" d="M 519 658 L 519 660 L 532 661 L 855 660 L 855 658 L 520 658"/>
    <path pathLength="1" d="M 519 512 L 519 514 L 855 514 L 855 512 L 520 512"/>
    <path pathLength="1" d="M 134 658 L 133 660 L 166 661 L 468 660 L 468 658 L 135 658"/>
    <path pathLength="1" d="M 519 571 L 521 574 L 854 573 L 854 571 L 520 571"/>
    <path pathLength="1" d="M 133 483 L 133 485 L 136 486 L 468 485 L 468 483 L 134 483"/>
    <path pathLength="1" d="M 519 395 L 521 398 L 854 397 L 854 395 L 520 395"/>
    <path pathLength="1" d="M 519 337 L 521 340 L 854 339 L 854 337 L 520 337"/>
    <path pathLength="1" d="M 521 628 L 519 629 L 520 631 L 854 631 L 852 628 L 522 628"/>
    <path pathLength="1" d="M 522 599 L 519 600 L 519 602 L 853 602 L 854 600 L 523 599"/>
    <path pathLength="1" d="M 520 483 L 519 485 L 521 486 L 854 485 L 854 483 L 521 483"/>
    <path pathLength="1" d="M 521 366 L 519 367 L 520 369 L 854 369 L 852 366 L 522 366"/>
    <path pathLength="1" d="M 135 366 L 133 367 L 134 369 L 468 369 L 466 366 L 136 366"/>
    <path pathLength="1" d="M 134 337 L 133 339 L 135 340 L 468 339 L 468 337 L 135 337"/>
    <path pathLength="1" d="M 519 454 L 519 456 L 854 456 L 854 454 L 520 454"/>
    <path pathLength="1" d="M 133 454 L 133 456 L 468 456 L 468 454 L 134 454"/>
    <path pathLength="1" d="M 519 425 L 519 427 L 854 427 L 854 425 L 520 425"/>
    <path pathLength="1" d="M 133 425 L 133 427 L 468 427 L 468 425 L 134 425"/>
    <path pathLength="1" d="M 519 250 L 519 252 L 854 252 L 854 250 L 520 250"/>
    <path pathLength="1" d="M 133 250 L 133 252 L 468 252 L 468 250 L 134 250"/>
    <path pathLength="1" d="M 135 599 L 133 602 L 467 602 L 465 599 L 136 599"/>
    <path pathLength="1" d="M 134 571 L 136 574 L 468 573 L 468 571 L 135 571"/>
    <path pathLength="1" d="M 520 542 L 521 545 L 854 544 L 854 542 L 521 542"/>
    <path pathLength="1" d="M 133 395 L 135 398 L 467 397 L 467 395 L 134 395"/>
    <path pathLength="1" d="M 520 307 L 521 310 L 854 309 L 854 307 L 521 307"/>
    <path pathLength="1" d="M 136 278 L 133 279 L 134 281 L 467 281 L 465 278 L 137 278"/>
    <path pathLength="1" d="M 133 512 L 133 514 L 467 514 L 467 512 L 134 512"/>
    <path pathLength="1" d="M 520 543 L 854 543 L 853 545 L 520 544"/>
    <path pathLength="1" d="M 520 308 L 854 308 L 853 310 L 520 309"/>
    <path pathLength="1" d="M 134 307 L 135 310 L 467 310 L 467 307 L 135 307"/>
    <path pathLength="1" d="M 135 628 L 134 631 L 467 631 L 465 628 L 136 628"/>
    <path pathLength="1" d="M 134 542 L 135 545 L 467 544 L 467 542 L 135 542"/>
    <path pathLength="1" d="M 522 278 L 520 281 L 853 281 L 852 278 L 523 278"/>
    <path pathLength="1" d="M 520 629 L 853 629 L 852 631 L 520 630"/>
    <path pathLength="1" d="M 520 572 L 853 572 L 852 574 L 520 573"/>
    <path pathLength="1" d="M 134 543 L 467 543 L 466 545 L 134 544"/>
    <path pathLength="1" d="M 520 484 L 853 484 L 852 486 L 520 485"/>
    <path pathLength="1" d="M 520 396 L 853 396 L 852 398 L 520 397"/>
    <path pathLength="1" d="M 134 396 L 467 396 L 466 398 L 134 397"/>
    <path pathLength="1" d="M 520 367 L 853 367 L 852 369 L 520 368"/>
    <path pathLength="1" d="M 134 367 L 467 367 L 466 369 L 134 368"/>
    <path pathLength="1" d="M 520 338 L 853 338 L 852 340 L 520 339"/>
    <path pathLength="1" d="M 134 338 L 467 338 L 466 340 L 134 339"/>
    <path pathLength="1" d="M 134 308 L 467 308 L 466 310 L 134 309"/>
    <path pathLength="1" d="M 134 629 L 466 629 L 465 631 L 134 630"/>
    <path pathLength="1" d="M 521 600 L 853 600 L 852 602 L 521 601"/>
    <path pathLength="1" d="M 134 600 L 466 600 L 465 602 L 134 601"/>
    <path pathLength="1" d="M 135 572 L 467 572 L 466 574 L 135 573"/>
    <path pathLength="1" d="M 135 484 L 467 484 L 466 486 L 135 485"/>
    <path pathLength="1" d="M 521 279 L 853 279 L 852 281 L 521 280"/>
    <path pathLength="1" d="M 135 279 L 466 279 L 465 281 L 135 280"/>
    <path pathLength="1" d="M 631 659 L 632 658 L 640 658 L 641 659 L 640 661 L 632 661 L 631 660"/>
  </g>
</svg>